<?xml version="1.0" encoding="UTF-8" standalone="no"?>
<!-- Created with Inkscape (http://www.inkscape.org/) -->

<svg
   xmlns:dc="http://purl.org/dc/elements/1.1/"
   xmlns:cc="http://creativecommons.org/ns#"
   xmlns:rdf="http://www.w3.org/1999/02/22-rdf-syntax-ns#"
   xmlns:svg="http://www.w3.org/2000/svg"
   xmlns="http://www.w3.org/2000/svg"
   xmlns:sodipodi="http://sodipodi.sourceforge.net/DTD/sodipodi-0.dtd"
   xmlns:inkscape="http://www.inkscape.org/namespaces/inkscape"
   width="1047.96"
   height="790.73987"
   viewBox="0 0 277.27273 209.2166"
   version="1.1"
   id="svg257"
   inkscape:version="0.92.2 (5c3e80d, 2017-08-06)"
   sodipodi:docname="costaRicaINSb.svg">
  <defs
     id="defs251" />
  <sodipodi:namedview
     id="base"
     pagecolor="#ffffff"
     bordercolor="#666666"
     borderopacity="1.0"
     inkscape:pageopacity="0.0"
     inkscape:pageshadow="2"
     inkscape:zoom="0.49497475"
     inkscape:cx="228.0053"
     inkscape:cy="395.37071"
     inkscape:document-units="px"
     inkscape:current-layer="layer1"
     showgrid="false"
     units="px"
     fit-margin-top="0"
     fit-margin-left="0"
     fit-margin-right="0"
     fit-margin-bottom="0"
     inkscape:window-width="1366"
     inkscape:window-height="745"
     inkscape:window-x="-8"
     inkscape:window-y="-8"
     inkscape:window-maximized="1" />
  <metadata
     id="metadata254">
    <rdf:RDF>
      <cc:Work
         rdf:about="">
        <dc:format>image/svg+xml</dc:format>
        <dc:type
           rdf:resource="http://purl.org/dc/dcmitype/StillImage" />
        <dc:title></dc:title>
      </cc:Work>
    </rdf:RDF>
  </metadata>
  <g
     inkscape:label="Layer 1"
     inkscape:groupmode="layer"
     id="layer1"
     transform="translate(32.803041,-44.225239)">
    <path
       style="fill:#e6e6e6;stroke-width:0.26458332"
       d="m 87.472619,131.13069 c -0.2704,-0.27041 -0.17075,-1.4587 0.21238,-2.53252 0.33046,-0.92619 0.3175,-1.01914 -0.17916,-1.28494 -0.29568,-0.15824 -0.99096,-0.21369 -1.55287,-0.12384 -0.92608,0.14809 -1.03243,0.10309 -1.18405,-0.50098 -0.15401,-0.61363 -0.28297,-0.66369 -1.70978,-0.66369 -0.84876,0 -1.61678,0.11906 -1.70672,0.26458 -0.0899,0.14552 -0.48675,0.26458 -0.88181,0.26458 -0.78366,0 -5.18393,-3.23891 -7.61474,-5.60498 l -1.35279,-1.31677 -0.17954,-2.15282 c -0.11581,-1.38864 -0.32948,-2.3185 -0.60195,-2.61958 -0.33009,-0.36474 -0.35417,-0.54897 -0.11019,-0.84295 0.59342,-0.71503 0.77584,-1.88479 0.39979,-2.56361 -0.1956,-0.3531 -0.35986,-1.03963 -0.36502,-1.52563 -0.006,-0.58479 -0.21071,-1.05158 -0.60469,-1.38026 -0.76947,-0.64191 -0.80525,-0.63887 -2.09976,0.17831 -2.568,1.62111 -3.686875,1.4457 -5.617913,-0.88073 -1.571818,-1.89367 -1.621909,-2.33028 -0.386583,-3.36974 0.940983,-0.79178 1.010074,-1.94889 0.183148,-3.06737 l -0.578925,-0.78303 0.578925,-0.783039 c 0.318407,-0.43067 0.578924,-0.90692 0.578924,-1.058333 0,-0.767302 2.208649,0.425262 3.476011,1.876882 l 0.697886,0.79935 0.343157,-1.33892 c 0.22413,-0.87453 0.6484,-1.634783 1.22325,-2.191943 l 0.88009,-0.853024 0.40897,0.583887 c 0.72985,1.042004 2.1058,0.690203 2.46125,-0.629287 0.19828,-0.7361 0.27303,-0.770028 1.64242,-0.745432 0.87172,0.01566 2.31715,0.34173 3.68363,0.83099 2.52843,0.905288 2.81752,1.334712 1.96467,2.918359 -0.48524,0.90104 -2.88362,2.26919 -4.5687,2.60621 -0.97257,0.19451 -1.21502,0.71446 -0.76879,1.64867 0.3035,0.63541 0.49367,0.70874 2.02536,0.78104 1.66107,0.0784 1.72871,0.0543 3.89759,-1.38906 1.21395,-0.80787 2.26788,-1.46885 2.34207,-1.46885 0.0742,0 0.13489,1.60734 0.13489,3.57187 v 3.57188 h 1.53155 c 0.99874,0 1.8854,-0.1804 2.54866,-0.51855 0.67913,-0.34624 1.64285,-0.53683 2.90022,-0.57356 1.56418,-0.0457 2.10716,0.0592 3.20602,0.61909 0.72761,0.37076 1.95901,0.76061 2.73645,0.86634 1.34508,0.18292 1.4554,0.15164 2.2785,-0.64614 l 0.86499,-0.83838 2.411981,0.56627 c 2.22528,0.52243 2.47765,0.64918 3.26043,1.63752 1.15309,1.45589 2.19895,2.06543 3.10035,1.80691 2.23025,-0.63963 4.14744,-2.26551 4.44893,-3.77293 0.22408,-1.1204 0.67637,-1.16094 2.35879,-0.21144 1.82305,1.02887 2.18288,0.83865 1.69691,-0.89706 -0.35546,-1.26958 -2.18665,-3.25629 -3.93627,-4.27058 l -0.88727,-0.51437 0.15225,-1.85208 c 0.0838,-1.018646 0.23213,-3.312848 0.32974,-5.09823 l 0.17748,-3.246144 1.65884,-1.551768 c 1.88564,-1.763916 3.70784,-2.628225 4.56917,-2.167252 0.29745,0.159189 0.59988,0.289435 0.67206,0.289435 0.0722,0 1.08976,-1.095928 2.2613,-2.435394 2.07856,-2.376503 2.12003,-2.450714 1.71499,-3.068883 -0.39352,-0.600594 -0.37266,-0.686266 0.40187,-1.650064 0.91023,-1.132649 0.77968,-1.362779 -0.72275,-1.27413 -0.87018,0.05135 -1.27116,-0.132821 -2.65307,-1.218509 -1.40108,-1.100754 -1.62796,-1.399472 -1.62796,-2.143475 0,-0.726445 0.20067,-1.010629 1.25677,-1.779828 1.58537,-1.154676 3.4354,-2.095942 3.91039,-1.989545 0.20062,0.04494 1.6938,1.261803 3.31818,2.704148 l 2.95342,2.622446 3.46911,-0.308535 c 3.37707,-0.30035 3.48545,-0.329407 4.08474,-1.095156 0.40238,-0.514151 1.08729,-0.926692 1.97731,-1.191001 0.74893,-0.222408 1.66513,-0.688379 2.03599,-1.035494 0.52036,-0.487029 1.04829,-0.656384 2.31242,-0.741794 0.90097,-0.06088 1.57915,-0.01527 1.50706,0.101375 -0.17579,0.284449 0.6714,3.346188 1.16818,4.221742 0.5658,0.997215 0.24732,1.664192 -0.67863,1.421199 -0.39837,-0.104545 -1.20056,-0.207439 -1.78265,-0.228653 l -1.05833,-0.03857 -0.0813,1.123281 c -0.0955,1.319922 -0.37033,1.514938 -2.49839,1.77301 -0.83674,0.10147 -1.52135,0.222724 -1.52135,0.269446 0,0.881269 -0.99465,4.597459 -1.51516,5.660906 -0.5547,1.133309 -0.63219,1.505477 -0.38563,1.852084 0.70576,0.99214 1.63621,2.967294 1.63621,3.47336 0,0.298997 -0.31348,1.017331 -0.69662,1.596294 -0.52028,0.786191 -0.87375,1.052661 -1.39634,1.052661 -0.38484,0 -0.97866,0.195379 -1.31959,0.434176 -0.58226,0.407829 -0.61245,0.562438 -0.49752,2.547715 0.12169,2.102227 0.12823,2.118427 1.22245,3.027347 l 1.10012,0.91381 -0.002,2.69004 -0.002,2.69004 -2.39007,1.30703 c -1.81385,0.99191 -2.60303,1.60344 -3.27335,2.53649 -0.68876,0.95869 -1.14144,1.30174 -2.05551,1.55766 -1.39514,0.39061 -2.41104,1.53243 -2.86569,3.22087 -0.39307,1.45973 -1.16497,2.56224 -1.8702,2.67119 -0.29847,0.0461 -0.74251,0.41965 -0.98677,0.83009 -0.42964,0.72193 -0.42376,0.76288 0.18052,1.25677 0.34354,0.28079 0.84681,0.51052 1.11838,0.51052 0.66444,0 1.39737,1.16562 1.20495,1.9163 -0.0842,0.32848 -0.69065,0.93434 -1.34768,1.34636 -0.93152,0.58414 -1.257,0.9809 -1.47802,1.80171 l -0.28344,1.0526 -2.96212,-0.10013 c -1.9831,-0.067 -3.35087,-0.25261 -4.13836,-0.56147 -1.27735,-0.50101 -5.09315,-0.87007 -6.17872,-0.59761 -0.37076,0.0931 -1.24882,0.60803 -1.95124,1.14438 -2.1091,1.61048 -4.00103,1.91561 -11.944001,1.92633 -3.77737,0.005 -6.90611,0.12034 -7.17511,0.26431 -0.26234,0.1404 -0.55217,0.18009 -0.64406,0.0882 z"
       id="CentralNorte"
       title="Central Norte"
       inkscape:connector-curvature="0"
       inkscape:label="CentralNorteLabel">
      <desc
         id="desc4131">CentralNorteDesc</desc>
      <title
         id="title4129">CentralNorteTitle</title>
    </path>    
    <path
      style="fill:#cccccc;stroke-width:0.26458332"
      d="m 121.3045,160.43501 c -0.96195,-0.39372 -1.38119,-1.1728 -1.55037,-2.88107 -0.18768,-1.89516 -0.70097,-2.52877 -2.28608,-2.82199 -1.73881,-0.32164 -4.23815,-1.77797 -5.04079,-2.93718 -0.73278,-1.05833 -0.79824,-1.08951 -2.6485,-1.26147 -1.86141,-0.173 -1.92961,-0.20608 -3.62156,-1.75644 -0.96108,-0.88066 -2.14798,-1.70334 -2.68127,-1.85849 -0.84865,-0.24689 -8.462531,-0.75217 -11.697201,-0.77627 -1.12842,-0.008 -1.29485,-0.10334 -2.32691,-1.32729 -0.91237,-1.08202 -1.06317,-1.40868 -0.84149,-1.82288 0.35064,-0.65519 -0.068,-0.78055 -3.64739,-1.09229 -3.08151,-0.26838 -2.97986,-0.20172 -4.29344,-2.81545 -1.04252,-2.07437 -0.96951,-2.81265 0.29842,-3.0175 0.84982,-0.1373 5.43131,-3.31482 6.90663,-4.79014 0.45084,-0.45084 1.02791,-0.48933 7.33604,-0.48933 7.929921,0 10.101101,-0.30913 11.654881,-1.65941 1.74943,-1.52031 3.18681,-1.78816 6.63383,-1.23622 0.94588,0.15146 2.21673,0.51398 2.82411,0.8056 0.98631,0.47356 1.38113,0.50753 3.69489,0.31793 l 2.59058,-0.21228 0.23251,-0.98594 c 0.16591,-0.70348 0.49272,-1.14675 1.14077,-1.54727 1.29058,-0.79762 1.68797,-1.25495 1.68797,-1.9426 0,-0.72452 -0.66212,-1.37021 -1.66063,-1.61943 -1.13066,-0.28219 -1.43087,-1.08623 -0.69717,-1.86722 0.32888,-0.35007 0.74769,-0.6365 0.93069,-0.6365 0.49854,0 1.40123,-1.40431 1.82934,-2.8459 0.20849,-0.70208 0.7093,-1.58351 1.1129,-1.95873 0.77974,-0.7249 3.14778,-1.73315 3.42336,-1.45757 0.0903,0.0903 0.16419,0.80948 0.16419,1.59817 v 1.43399 l 1.21897,0.5493 c 0.67044,0.30212 1.93335,0.7456 2.80647,0.98551 0.87313,0.23991 1.70657,0.52392 1.85209,0.63114 0.14552,0.10722 1.75286,0.75732 3.57187,1.44467 6.88648,2.60221 11.98834,4.8959 14.09394,6.33634 0.99612,0.68144 0.99884,0.68172 2.86173,0.28984 1.02556,-0.21573 2.11915,-0.52843 2.43018,-0.69489 0.77295,-0.41368 6.50498,-0.10604 8.36607,0.449 1.15736,0.34517 2.446,0.4088 6.84296,0.33792 5.27063,-0.085 5.42725,-0.0722 5.7929,0.47275 0.35225,0.52497 0.29232,0.62376 -0.95598,1.57573 -1.5641,1.1928 -1.764,2.14394 -0.68802,3.27367 0.66758,0.70094 0.81173,1.46879 0.72668,3.87078 -0.0472,1.33394 -0.0724,1.37056 -3.83754,5.5806 -2.0845,2.33081 -4.17685,4.77651 -4.64965,5.43488 -0.99461,1.38497 -1.955,2.15065 -3.56106,2.83908 -1.02949,0.4413 -1.20659,0.65736 -1.77985,2.17137 -0.76361,2.01674 -0.76975,3.6567 -0.02,5.35151 l 0.54169,1.22459 -1.1096,-5.3e-4 c -0.93163,-5.2e-4 -1.55326,-0.29598 -3.87578,-1.84296 -1.52141,-1.01337 -3.12875,-1.9181 -3.57188,-2.0105 -0.44313,-0.0924 -1.2893,-0.63508 -1.88037,-1.20595 -1.00837,-0.97391 -1.13882,-1.02462 -2.11415,-0.82198 -0.8121,0.16873 -1.20301,0.45946 -1.78708,1.32913 l -0.74761,1.11321 h -1.94967 c -1.98325,0 -3.26842,-0.31044 -3.62832,-0.87645 -0.10987,-0.17279 -0.20159,-0.76066 -0.20382,-1.30636 -0.004,-0.96286 -0.0323,-0.99219 -0.96079,-0.99219 -1.39423,0 -3.35126,1.49775 -3.76606,2.88224 -0.33872,1.13056 -0.32259,1.1237 -4.1091,1.74793 -0.56468,0.0931 -1.45765,0.44114 -1.98438,0.77345 -0.52672,0.33231 -1.47135,0.86611 -2.09917,1.18622 l -1.14149,0.58202 -0.53136,-0.67551 c -0.63571,-0.80818 -1.64136,-0.88182 -2.14879,-0.15736 -0.30622,0.43718 -0.73234,0.5302 -2.72698,0.59531 -2.223,0.0726 -2.3691,0.11268 -2.4486,0.67247 -0.0681,0.47926 -0.2486,0.59204 -0.92605,0.57854 -0.46282,-0.009 -1.07961,-0.11423 -1.37066,-0.23335 z"
      id="CentralSur"
      title="Central Sur"
      inkscape:connector-curvature="0"
      inkscape:label="CentralSurLabel">
      <desc
          id="desc4135">CentralSurDesc</desc>
      <title
          id="title4133">CentralSurTitle</title>
    </path>
    <path
       style="fill:#b3b3b3;stroke-width:0.26458332"
       d="m 105.90214,112.0092 c -0.42451,-0.25817 -1.15364,-0.95146 -1.62029,-1.54064 -0.78278,-0.98834 -1.03515,-1.11509 -3.26043,-1.63752 l -2.411981,-0.56627 -0.86499,0.83838 c -0.8231,0.79778 -0.93342,0.82906 -2.2785,0.64614 -0.77744,-0.10573 -2.00884,-0.49558 -2.73645,-0.86634 -1.09886,-0.55993 -1.64184,-0.66478 -3.20602,-0.61909 -1.25737,0.0367 -2.22109,0.22732 -2.90022,0.57356 -0.66326,0.33815 -1.54992,0.51855 -2.54866,0.51855 h -1.53155 v -3.57188 c 0,-1.96453 -0.0607,-3.57187 -0.13489,-3.57187 -0.0742,0 -1.12812,0.66098 -2.34207,1.46885 -2.16888,1.44335 -2.23652,1.46746 -3.89759,1.38906 -1.53169,-0.0723 -1.72186,-0.14563 -2.02536,-0.78104 -0.44623,-0.93421 -0.20378,-1.45416 0.76879,-1.64867 1.68508,-0.33702 4.08346,-1.70517 4.5687,-2.60621 0.85285,-1.583647 0.56376,-2.013071 -1.96467,-2.918359 -1.36648,-0.48926 -2.81191,-0.815335 -3.68363,-0.83099 -1.36939,-0.02461 -1.44414,0.0093 -1.64242,0.745432 -0.35545,1.31949 -1.7314,1.671291 -2.46125,0.629287 l -0.40897,-0.583887 -0.88009,0.853024 c -0.56368,0.546336 -0.9991,1.317334 -1.21108,2.144463 l -0.330991,1.29143 -1.183682,-1.1504 c -0.651026,-0.632728 -1.595628,-1.299372 -2.099117,-1.481437 -0.770575,-0.278644 -0.915844,-0.458685 -0.918019,-1.13777 -0.0013,-0.443708 -0.284845,-1.402056 -0.629833,-2.12966 -1.148294,-2.42185 -4.018328,-4.552452 -8.152813,-6.052336 -1.352759,-0.490744 -3.965913,-1.513689 -5.807011,-2.273212 L 44.7596,85.758847 44.321162,84.013414 c -0.278038,-1.106871 -0.67473,-1.96442 -1.084318,-2.344012 -0.687959,-0.637577 -0.86346,-1.636408 -0.315153,-1.793618 2.182341,-0.625724 2.96179,-1.095201 3.959815,-2.385068 0.616021,-0.796158 1.754735,-1.797254 2.706182,-2.379128 1.453041,-0.888633 1.724295,-1.192028 2.350074,-2.628541 0.668057,-1.533567 0.70743,-1.85561 0.707398,-5.7861 l -3.2e-5,-4.162146 0.727604,-0.155644 c 1.216758,-0.26028 1.856907,-0.577132 7.265287,-3.596068 l 5.214762,-2.910861 2.590448,-0.245522 c 3.01943,-0.286182 4.97412,-0.09331 5.59148,0.551718 0.58935,0.615769 2.00876,1.319212 2.66191,1.319212 0.29142,0 0.81351,-0.129239 1.16019,-0.287197 0.51102,-0.232838 0.80133,-0.182947 1.5338,0.263594 0.49691,0.302935 1.18391,0.551236 1.52667,0.55178 1.13779,0.0018 6.01166,2.583413 7.57534,4.01253 l 1.47941,1.352096 1.03831,-0.83441 c 0.57107,-0.458926 1.42963,-0.907825 1.9079,-0.997553 0.47828,-0.08973 1.10772,-0.367539 1.39876,-0.617357 1.46612,-1.258453 2.27947,-0.849635 3.48025,1.749297 0.8592,1.859635 0.99305,2.00834 2.418811,2.687372 0.8301,0.395343 1.65902,0.918831 1.84204,1.163306 0.18302,0.244475 1.01645,0.593155 1.85208,0.774843 1.17925,0.256401 1.86211,0.623693 3.05074,1.640918 l 1.53142,1.310575 -0.93611,0.6361 c -1.32288,0.898919 -1.21904,1.488474 0.3836,2.17791 1.87969,0.808622 2.67232,0.915963 4.25589,0.576347 1.35826,-0.291296 1.42303,-0.27772 2.39263,0.501475 0.76787,0.617075 1.26178,0.800873 2.15215,0.800873 0.63557,0 1.36767,0.155093 1.62691,0.344649 0.42855,0.313364 0.43314,0.376348 0.0506,0.693856 -0.23142,0.192064 -0.42077,0.733782 -0.42077,1.20382 0,0.73192 0.23372,1.038236 1.62796,2.133611 1.38191,1.085688 1.78289,1.269854 2.65307,1.218509 1.50243,-0.08865 1.63298,0.141481 0.72275,1.27413 -0.77453,0.963798 -0.79539,1.04947 -0.40187,1.650064 0.40504,0.618169 0.36357,0.69238 -1.71499,3.068883 -1.17154,1.339466 -2.18913,2.435394 -2.2613,2.435394 -0.0722,0 -0.37461,-0.130246 -0.67206,-0.289435 -0.86133,-0.460973 -2.68353,0.403336 -4.56917,2.167252 l -1.65884,1.551768 -0.17748,3.246144 c -0.0976,1.785382 -0.24599,4.079584 -0.32974,5.09823 l -0.15225,1.85208 0.88727,0.51437 c 1.74962,1.01429 3.58081,3.001 3.93627,4.27058 0.48597,1.73571 0.12614,1.92593 -1.69691,0.89706 -1.68242,-0.9495 -2.13471,-0.90896 -2.35879,0.21144 -0.21187,1.05936 -1.34762,2.34895 -2.65706,3.01698 -1.80392,0.92029 -2.41376,1.01155 -3.27193,0.48968 z"
       id="HuetarNorte"
       title="Huetar Norte"
       inkscape:connector-curvature="0"
       inkscape:label="#HuetarNorteLabel"
       sodipodi:nodetypes="csscsssscscsssssscccsccsscsccccccsscsssscsscssssscscssssccsscscscsccsscscsscccsscscsccc">
      <desc
         id="desc4119">HuetarNorteDesc</desc>
      <title
         id="title4117">HuetarNorteTitle</title>
    </path>
    <path
       style="fill:#b3b3b3;stroke-width:0.26458332"
       d="m 134.68288,179.29583 c -0.50002,-0.21788 -1.40721,-0.83457 -2.01597,-1.37043 -0.60877,-0.53586 -1.39029,-1.11552 -1.73672,-1.28815 -1.5279,-0.76135 -4.28207,-1.70544 -5.60195,-1.92025 -0.79,-0.12858 -2.3757,-0.59701 -3.5238,-1.04096 -1.14809,-0.44396 -3.38073,-1.04963 -4.96142,-1.34594 -3.08192,-0.57773 -2.96711,-0.51932 -7.04789,-3.58543 -1.38245,-1.03871 -2.80627,-2.04435 -3.16405,-2.23477 -0.35777,-0.19041 -0.84249,-0.58331 -1.07715,-0.8731 -0.34042,-0.42041 -0.90407,-0.5676 -2.78908,-0.72836 -1.29934,-0.1108 -3.612591,-0.3849 -5.140551,-0.60911 -1.52797,-0.2242 -5.86843,-0.73411 -9.64547,-1.13314 l -6.86734,-0.7255 -4.64204,-3.51453 c -9.06609,-6.86404 -9.895834,-7.55865 -10.529008,-8.81428 -0.947674,-1.87929 -0.647835,-5.85014 0.480666,-6.36559 0.208576,-0.0953 0.854072,-0.4009 1.434442,-0.67917 1.71685,-0.82318 1.52829,-1.94572 -0.42514,-2.53098 -0.564821,-0.16923 -1.026948,-0.43952 -1.026948,-0.60066 0,-0.75989 -1.120288,-2.16888 -3.175,-3.99323 -2.083067,-1.84952 -2.252162,-2.07584 -2.292408,-3.06816 -0.02389,-0.58924 -0.09304,-1.12093 -0.153638,-1.18153 -0.0606,-0.0606 -0.814959,0.0202 -1.676342,0.17949 -2.202137,0.40733 -3.329969,0.18931 -4.664117,-0.90158 -0.624454,-0.5106 -4.099211,-2.83588 -7.721682,-5.1673 -6.422223,-4.13333 -6.602151,-4.22856 -7.221993,-3.82242 -0.930672,0.6098 -2.424522,0.0337 -4.494321,-1.73321 -1.351462,-1.15369 -1.673415,-1.57819 -1.673415,-2.20643 0,-0.91098 0.51495,-3.16489 0.794451,-3.47727 0.106336,-0.11884 0.88033,-0.0164 1.719987,0.22773 l 1.526649,0.44381 1.042752,-1.21991 c 1.030388,-1.20546 1.062109,-1.21993 2.675811,-1.22088 1.432488,-8e-4 1.96556,0.16412 4.340307,1.34322 1.488987,0.73931 2.916144,1.30397 3.171459,1.2548 0.255315,-0.0492 0.70393,-0.49692 0.996919,-0.99501 0.633555,-1.07705 3.239944,-3.64749 3.927583,-3.8734 0.417679,-0.13723 0.459566,-0.34018 0.303856,-1.47233 -0.176168,-1.28089 -0.155692,-1.33469 0.833495,-2.18977 0.710565,-0.61424 1.09831,-1.22354 1.295437,-2.03565 0.507762,-2.09182 2.104486,-2.22687 4.312899,-0.36481 0.565357,0.47669 0.83642,0.90934 0.757881,1.20967 -0.07714,0.29497 0.400412,1.09726 1.293775,2.17355 1.931038,2.32643 3.049913,2.50184 5.617913,0.88073 1.29451,-0.81718 1.33029,-0.82022 2.09976,-0.17831 0.39398,0.32868 0.59849,0.79547 0.60469,1.38026 0.005,0.486 0.16942,1.17253 0.36502,1.52563 0.37605,0.67882 0.19363,1.84858 -0.39979,2.56361 -0.24398,0.29398 -0.2199,0.47821 0.11019,0.84295 0.27247,0.30108 0.48614,1.23094 0.60195,2.61958 l 0.17954,2.15282 1.35279,1.31677 c 2.43081,2.36607 6.83108,5.60498 7.61474,5.60498 0.39506,0 0.79187,-0.11906 0.88181,-0.26458 0.0899,-0.14552 0.85796,-0.26458 1.70672,-0.26458 1.42681,0 1.55577,0.0501 1.70978,0.66369 0.15162,0.60407 0.25797,0.64907 1.18405,0.50098 0.56206,-0.0899 1.2572,-0.0344 1.55306,0.12394 0.50839,0.27208 0.51576,0.34406 0.14515,1.41724 -0.21474,0.62183 -0.32843,1.54732 -0.25264,2.05665 0.13592,0.91342 0.0993,0.95469 -2.68723,3.02858 -1.80844,1.34594 -3.1591,2.15651 -3.75341,2.25252 -1.25705,0.20308 -1.32818,0.94694 -0.2884,3.01587 1.31358,2.61373 1.21193,2.54707 4.29344,2.81545 3.57941,0.31174 3.99803,0.4371 3.64739,1.09229 -0.22168,0.4142 -0.0709,0.74086 0.84149,1.82288 1.03206,1.22395 1.19849,1.31889 2.32691,1.32729 3.23467,0.0241 10.848551,0.52938 11.697201,0.77627 0.53329,0.15515 1.72019,0.97783 2.68127,1.85849 1.69195,1.55036 1.76015,1.58344 3.62156,1.75644 1.85026,0.17196 1.91572,0.20314 2.6485,1.26147 0.80264,1.15921 3.30198,2.61554 5.04079,2.93718 1.60711,0.29729 2.11242,0.93204 2.29454,2.88236 0.19615,2.10047 0.79481,2.80194 2.56119,3.00104 1.09024,0.12289 1.19159,0.0836 1.27325,-0.49366 0.0848,-0.59959 0.19274,-0.63058 2.45278,-0.70434 1.99464,-0.0651 2.42076,-0.15813 2.72698,-0.59531 0.58517,-0.83545 1.51166,-0.64405 2.41726,0.49936 0.44324,0.55963 3.01309,2.96165 5.71077,5.33781 3.58705,3.15952 4.90489,4.47776 4.90489,4.90638 0,0.32235 -0.18357,1.55378 -0.40793,2.73652 -0.40704,2.14573 -1.07226,3.5197 -2.31779,4.78719 -0.3575,0.3638 -0.79266,1.10794 -0.96703,1.65365 -0.30137,0.94316 -0.37158,0.99112 -1.421,0.9706 -0.60717,-0.0119 -1.51306,-0.19984 -2.01308,-0.41772 z M 33.52694,156.12107 c -0.216498,-0.32742 -1.004099,-0.80857 -1.750222,-1.06921 l -1.35659,-0.4739 v -1.21864 c 0,-1.00696 -0.165034,-1.42005 -0.950087,-2.3781 -0.522549,-0.6377 -1.504815,-1.44077 -2.182812,-1.78459 -1.600304,-0.81154 -2.149126,-1.446 -2.462014,-2.84621 -0.146156,-0.65405 -0.595974,-1.49582 -1.051026,-1.96684 l -0.795515,-0.82344 1.066544,-0.17054 c 0.727051,-0.11626 1.165738,-0.35947 1.378172,-0.76407 0.171394,-0.32644 0.771689,-1.14729 1.333987,-1.82411 0.908595,-1.09366 1.004805,-1.34392 0.864621,-2.24896 -0.239326,-1.5451 -0.825513,-3.98132 -1.042403,-4.33225 -0.373335,-0.60407 -2.07772,-1.09102 -4.332028,-1.23768 -1.253165,-0.0815 -2.327119,-0.19114 -2.386566,-0.24357 -0.05945,-0.0524 -0.1,-0.63036 -0.09011,-1.28426 0.02313,-1.53016 0.844709,-2.86498 2.271742,-3.69091 1.784572,-1.03287 2.966379,-1.23043 5.015762,-0.83849 2.041035,0.39035 2.302467,0.22261 2.304391,-1.4785 7.94e-4,-0.79002 0.118996,-0.92582 1.187209,-1.36511 l 1.186217,-0.48781 1.392478,0.86904 c 0.798537,0.49836 1.95675,0.95243 2.715395,1.06454 1.911607,0.2825 4.661242,1.30909 5.761009,2.1509 0.896035,0.68587 1.107948,0.72761 3.694387,0.72761 2.421176,0 2.905393,0.0805 4.117729,0.68464 1.647227,0.82085 2.433141,1.7421 2.43708,2.85677 0.0073,2.06484 0.310055,2.84927 1.376685,3.5669 0.569696,0.38329 1.355546,0.95724 1.746335,1.27543 l 0.710525,0.57853 -2.279557,2.19959 c -1.253755,1.20978 -2.578963,2.67585 -2.944905,3.25793 -0.987044,1.57004 -1.734394,2.15177 -3.634333,2.82897 -1.285763,0.45829 -1.847244,0.82168 -2.248307,1.45511 -0.29401,0.46436 -0.844238,0.91635 -1.222727,1.00444 -0.522764,0.12166 -4.136237,2.17037 -4.692687,2.66058 -0.04905,0.0432 -0.185907,0.85849 -0.304125,1.81172 -0.121764,0.98184 -0.398513,1.91672 -0.638419,2.15662 -0.232915,0.23292 -0.423481,0.53404 -0.423481,0.66917 0,0.13512 -0.238125,0.48381 -0.529167,0.77485 -0.776904,0.7769 -2.711841,0.73744 -3.243188,-0.0661 z"
       id="PacificoCentral"
       title="Pacifico Central"
       inkscape:connector-curvature="0"
       inkscape:label="PacificoCentralLabel">
      <desc
         id="desc4127">PacificoCentralDesc</desc>
      <title
         id="title4125">PacificoCentralTitle</title>
    </path>    
    <path
       style="fill:#b3b3b3;stroke-width:0.26458332"
       d="m 211.52742,187.37311 c -0.7276,-0.29439 -1.50151,-0.68447 -1.71979,-0.86684 -0.21828,-0.18238 -0.96242,-0.65442 -1.65365,-1.04898 -1.0991,-0.62738 -1.25677,-0.82654 -1.25677,-1.58748 0,-0.86866 -0.004,-0.87117 -2.3151,-1.5106 l -2.31511,-0.64049 -1.4552,-2.7643 c -1.36202,-2.58727 -1.55688,-2.82536 -3.04271,-3.71775 -0.87313,-0.52439 -2.00422,-1.1144 -2.51354,-1.31113 -0.50933,-0.19673 -1.4068,-0.81552 -1.99439,-1.37509 -1.06198,-1.01134 -1.08135,-1.0174 -3.24776,-1.0174 -1.96112,0 -2.36226,-0.0921 -4.00521,-0.91946 -1.00419,-0.50571 -2.5291,-1.115 -3.38868,-1.35398 l -1.56287,-0.43452 -2.3922,0.95711 c -1.65479,0.66206 -2.8083,0.9571 -3.742,0.9571 -1.32919,0 -1.39734,-0.0409 -4.46512,-2.6776 -1.71342,-1.47269 -3.30259,-2.88859 -3.53149,-3.14646 -0.23298,-0.26247 -0.56721,-1.50049 -0.75929,-2.8125 -0.18871,-1.28901 -0.4625,-2.49248 -0.60841,-2.67438 -0.1953,-0.24347 -0.12106,-0.33073 0.28139,-0.33073 h 0.54669 l -0.5417,-1.22459 c -0.74969,-1.69481 -0.74355,-3.33477 0.0201,-5.35151 0.57325,-1.51401 0.75036,-1.73007 1.77985,-2.17137 1.60605,-0.68843 2.56644,-1.45411 3.56105,-2.83908 0.47281,-0.65837 2.56515,-3.10407 4.64965,-5.43488 3.76514,-4.21004 3.79032,-4.24666 3.83755,-5.5806 0.085,-2.40199 -0.0591,-3.16984 -0.72669,-3.87078 -1.07598,-1.12973 -0.87608,-2.08087 0.68802,-3.27367 1.2483,-0.95197 1.30824,-1.05076 0.95599,-1.57573 -0.36566,-0.54494 -0.52228,-0.55772 -5.7929,-0.47275 -4.39696,0.0709 -5.68561,0.007 -6.84296,-0.33792 -1.86109,-0.55504 -7.59312,-0.86268 -8.36608,-0.449 -0.31103,0.16646 -1.40461,0.47916 -2.43018,0.69489 -1.86288,0.39188 -1.86561,0.3916 -2.86172,-0.28984 -2.1056,-1.44044 -7.20746,-3.73413 -14.09394,-6.33634 -1.81901,-0.68735 -3.42635,-1.33745 -3.57187,-1.44467 -0.14552,-0.10722 -0.97896,-0.39123 -1.85209,-0.63114 -0.87312,-0.23991 -2.16293,-0.69599 -2.86624,-1.0135 -1.1393,-0.51435 -1.26373,-0.65235 -1.14108,-1.2656 0.0757,-0.37856 0.0327,-1.15386 -0.0957,-1.72288 -0.36027,-1.59741 0.32877,-2.45675 3.31858,-4.1388 l 2.50408,-1.40878 7e-5,-2.69003 7e-5,-2.69004 -1.10012,-0.91381 c -1.09422,-0.90892 -1.10076,-0.92513 -1.22245,-3.027351 -0.11493,-1.985277 -0.0847,-2.139886 0.49752,-2.547715 0.34093,-0.238797 0.94888,-0.434176 1.351,-0.434176 0.55978,0 0.89515,-0.247867 1.43106,-1.057677 0.86699,-1.310108 0.74926,-2.511716 -0.40677,-4.151783 -0.67538,-0.958178 -0.75153,-1.232435 -0.54355,-1.957621 0.13302,-0.463833 0.40789,-1.035288 0.61082,-1.269897 0.20293,-0.234611 0.57613,-1.515723 0.82934,-2.846919 l 0.46037,-2.420353 1.49379,-0.175053 c 2.34817,-0.275175 2.41982,-0.318167 2.41982,-1.451962 0,-1.266031 0.50469,-1.720654 1.65122,-1.487424 1.89555,0.385601 2.18882,0.33361 2.13914,-0.379228 -0.0253,-0.363802 -0.35277,-1.540245 -0.7276,-2.614321 -0.37483,-1.074073 -0.68151,-2.064086 -0.68151,-2.200029 0,-0.13594 0.88517,-0.656137 1.96703,-1.155991 1.38742,-0.641027 2.34607,-0.908825 3.25338,-0.908825 h 1.28634 l -0.10395,-2.579687 c -0.11328,-2.81111 -0.4392,-3.657993 -1.51136,-3.927086 -0.60541,-0.15195 -0.65811,-0.286706 -0.65811,-1.682985 0,-1.633042 0.47356,-2.393575 1.49039,-2.393575 0.7813,0 2.73638,1.33451 4.51248,3.080145 2.04686,2.011758 3.5597,4.608747 4.60206,7.900063 1.1871,3.748307 2.17389,6.262407 4.38088,11.161474 3.32584,7.382656 5.77943,11.406582 8.35425,13.701096 0.76916,0.685432 1.21989,1.160764 1.00161,1.056288 -0.54787,-0.262223 3.95984,4.243892 15.57588,15.570392 l 9.88734,9.64088 1.48974,-0.38925 c 3.08057,-0.80492 4.97415,0.26379 5.57227,3.1449 0.28926,1.39336 0.46297,1.59957 6.97087,8.27491 l 6.67423,6.84594 1.38103,-0.35395 c 1.25504,-0.32166 1.42896,-0.31058 1.90632,0.12143 0.29701,0.26879 0.60418,1.00151 0.70685,1.68611 0.26849,1.79047 1.63546,3.14455 3.52749,3.49425 0.79025,0.14607 1.65216,0.46045 1.91536,0.69864 0.39016,0.3531 0.84957,0.40502 2.4876,0.28113 1.60774,-0.12159 2.23618,-0.0546 3.14614,0.33547 0.62539,0.26807 1.83597,0.57221 2.69017,0.67587 2.05346,0.24917 2.40184,0.46426 2.77625,1.71395 0.1737,0.5797 0.45762,1.05401 0.63098,1.05401 0.64466,0 2.61789,1.56672 3.21447,2.55227 0.33946,0.56078 0.61783,1.39015 0.61857,1.84305 l 0.003,0.82344 -2.18062,0.23489 c -1.87409,0.20187 -2.194,0.30927 -2.27589,0.76406 -0.0524,0.29104 -0.37703,0.90318 -0.72136,1.3603 -0.59428,0.78898 -0.74472,0.84053 -2.96638,1.01637 -3.11176,0.24629 -3.79997,-0.0608 -6.80471,-3.03671 -2.06659,-2.04673 -2.55463,-2.39673 -3.69334,-2.64862 -0.72166,-0.15964 -1.43603,-0.38859 -1.5875,-0.50877 -0.33438,-0.26428 -3.43295,-0.81278 -4.59281,-0.81278 -0.95083,0 -1.20344,0.5371 -1.06012,2.25402 0.0717,0.85935 0.26511,1.13942 1.27519,1.84692 1.41515,0.99123 1.71685,2.1197 0.80935,3.02721 -0.4392,0.4392 -0.88099,0.54477 -2.27969,0.54477 -0.95421,0 -2.2717,0.13516 -2.92776,0.30036 -2.1109,0.53153 -2.03473,-0.0519 -1.74727,13.3827 0.21322,9.96521 0.19499,11.96492 -0.11464,12.57683 -0.43224,0.85424 -0.37777,0.84994 -2.07437,0.1635 z"
       id="HuetarAtlantico"
       title="Huetar Atlantico"
       inkscape:connector-curvature="0"
       inkscape:label="HuetarAtlanticoLabel">
      <desc
         id="desc4139">HuetarAtlanticoDesc</desc>
      <title
         id="title4137">HuetarAtlanticoTitle</title>
    </path>
    <path
       style="fill:#999999;stroke-width:0.26458332"
       d="m 215.29773,253.26904 c -0.34445,-0.20132 -0.46302,-0.61394 -0.46302,-1.61135 0,-1.21009 -0.10019,-1.43797 -1.02831,-2.33867 -0.62349,-0.60508 -1.25352,-1.59986 -1.60037,-2.5269 -0.77861,-2.08102 -1.93838,-3.49634 -3.03337,-3.70177 -0.53276,-0.0999 -2.03875,-1.08295 -3.88765,-2.53759 -3.49462,-2.74942 -4.28467,-3.20394 -6.60575,-3.80027 -1.87234,-0.48104 -2.90849,-1.27029 -3.70793,-2.82436 l -0.50033,-0.97263 2.27743,-2.13078 c 1.71804,-1.60741 2.27743,-2.298 2.27743,-2.81157 0,-0.71432 -0.98483,-1.97593 -1.54243,-1.97593 -0.32679,0 -2.11262,-2.30827 -3.88929,-5.02709 -1.26203,-1.93127 -2.47338,-3.03994 -3.76255,-3.44363 -0.58209,-0.18227 -1.98893,-0.81346 -3.12633,-1.40265 -1.81735,-0.9414 -2.33439,-1.08523 -4.26585,-1.1866 l -2.19785,-0.11536 -0.66692,-1.48994 c -0.36681,-0.81947 -0.79611,-1.81736 -0.954,-2.21755 -0.25769,-0.65311 -0.41737,-0.7276 -1.55973,-0.7276 -0.73965,0 -1.69671,0.2162 -2.28521,0.51623 -0.87921,0.44825 -1.357,0.49526 -3.62782,0.35691 -2.15462,-0.13126 -2.61525,-0.0933 -2.61525,0.21541 0,0.20711 0.56221,0.57736 1.25677,0.82767 1.85466,0.66838 2.70019,1.46348 2.88615,2.71399 0.16736,1.12547 1.49876,2.79177 2.73625,3.42455 0.3638,0.18603 1.66572,0.41231 2.89316,0.50285 2.0577,0.15178 2.30144,0.23202 3.12602,1.02903 1.33641,1.29173 2.44748,3.10331 2.44748,3.99058 0,0.5751 0.2577,1.00926 0.95877,1.61528 l 0.95877,0.82879 -0.62818,3.69717 -0.62818,3.69717 -0.9259,0.0751 c -0.5219,0.0423 -1.95772,-0.27514 -3.29064,-0.72761 -1.3006,-0.4415 -2.55412,-0.80272 -2.78559,-0.80272 -0.23147,0 -1.25914,-0.40174 -2.28371,-0.89275 -3.07904,-1.47559 -5.98389,-2.01767 -10.81215,-2.01767 h -4.15777 l -1.76261,-1.59833 c -1.50508,-1.36482 -3.78034,-2.7423 -5.36645,-3.24893 -0.23586,-0.0753 -0.70272,-0.79777 -1.03746,-1.6054 l -0.60863,-1.46841 -2.12147,-0.76633 c -1.9626,-0.70895 -2.14685,-0.83966 -2.46043,-1.74541 -0.18643,-0.53849 -0.59955,-1.19008 -0.91806,-1.44799 -0.6837,-0.55363 -0.50463,-0.98149 0.50344,-1.2029 0.57568,-0.12644 0.95979,-0.58954 1.83881,-2.21701 l 1.11113,-2.05718 2.09507,-0.60538 2.09508,-0.60538 0.1755,-1.78103 c 0.10358,-1.05117 0.0624,-2.07847 -0.10046,-2.50686 -0.15178,-0.3992 -0.27596,-0.9681 -0.27596,-1.26423 0,-0.88059 1.57415,-2.20516 3.24114,-2.72726 1.49001,-0.46667 1.81941,-0.87158 1.31887,-1.62122 -0.27647,-0.41404 -1.26532,-0.89961 -1.83064,-0.8989 -0.42586,5.2e-4 -0.47061,-0.20527 -0.39411,-1.81235 0.0595,-1.24907 -0.0483,-2.1339 -0.34645,-2.84487 -0.48386,-1.15381 -1.19245,-4.57625 -1.19969,-5.79442 -0.004,-0.71423 -0.28395,-0.97714 -2.79183,-2.62418 -1.53291,-1.00673 -3.02482,-2.16425 -3.31536,-2.57227 -0.3845,-0.53998 -1.016,-0.88712 -2.32063,-1.27565 -1.74923,-0.52094 -1.80785,-0.56731 -2.43466,-1.92564 -0.69956,-1.51601 -1.35288,-1.87538 -3.98779,-2.19355 -1.03213,-0.12463 -1.20832,-0.22692 -1.10058,-0.63893 0.0706,-0.2698 0.47472,-0.82244 0.89813,-1.2281 0.42342,-0.40566 0.76985,-0.85644 0.76985,-1.00173 0,-0.1453 0.23533,-0.51468 0.52296,-0.82085 0.52947,-0.56359 1.32899,-3.94468 1.32908,-5.62055 4e-5,-0.86601 -0.46975,-1.32289 -9.61255,-9.34828 l -0.76868,-0.67474 2.19171,-1.23972 c 1.20545,-0.68184 2.6185,-1.30928 3.14012,-1.39429 3.67491,-0.59893 3.69334,-0.60686 4.03081,-1.73324 0.4148,-1.38449 2.37183,-2.88224 3.76606,-2.88224 0.92846,0 0.95686,0.0293 0.96079,0.99219 0.002,0.5457 0.094,1.13357 0.20382,1.30636 0.3599,0.56601 1.64507,0.87645 3.62832,0.87645 h 1.94967 l 0.7476,-1.11316 c 0.58408,-0.86966 0.97498,-1.1604 1.78708,-1.32913 0.97534,-0.20264 1.10579,-0.15192 2.11415,0.82198 0.59108,0.57087 1.43725,1.11355 1.88037,1.20595 0.44313,0.0924 2.05048,0.99713 3.57188,2.0105 1.5214,1.01337 3.0195,1.8427 3.3291,1.84297 0.84882,7.9e-4 1.06199,0.44669 1.43662,3.00558 0.19208,1.31201 0.52631,2.55003 0.75929,2.8125 0.2289,0.25787 1.81807,1.67377 3.53149,3.14646 3.06778,2.63674 3.13593,2.6776 4.46512,2.6776 0.9337,0 2.08721,-0.29504 3.742,-0.9571 l 2.3922,-0.95711 1.56287,0.43452 c 0.85958,0.23898 2.38449,0.84827 3.38868,1.35398 1.64295,0.82737 2.04409,0.91946 4.00521,0.91946 2.16641,0 2.18578,0.006 3.24776,1.0174 0.58759,0.55957 1.48506,1.17836 1.99439,1.37509 0.50932,0.19673 1.64041,0.78674 2.51354,1.31113 1.48583,0.89239 1.68069,1.13048 3.04271,3.71775 l 1.4552,2.7643 2.31511,0.64049 c 2.31082,0.63931 2.3151,0.6421 2.3151,1.50997 0,0.77371 0.16758,0.97247 1.52136,1.80446 1.58183,0.97214 3.2208,1.79032 4.21957,2.10644 0.467,0.14781 0.6598,0.0328 0.97877,-0.58406 0.35564,-0.68774 0.57166,-0.7864 2.06428,-0.94288 1.79068,-0.18772 1.75905,-0.20418 2.62846,1.36748 0.37765,0.68268 0.90038,0.93738 4.13883,2.01667 3.61524,1.20487 3.74315,1.27365 5.19016,2.79069 0.81597,0.85545 1.48357,1.68167 1.48357,1.83604 0,0.15437 0.41672,0.4548 0.92604,0.6676 0.92628,0.38703 1.13221,0.89173 0.75981,1.86219 -0.19795,0.51584 -3.78808,3.21746 -4.80766,3.61781 -1.53272,0.60185 -5.25904,1.54231 -6.1386,1.54928 -0.50933,0.004 -1.10464,0.12122 -1.32292,0.26041 -0.33691,0.21483 -0.30692,0.31644 0.19844,0.67241 0.73633,0.51867 0.81052,1.96466 0.13229,2.57837 -0.25466,0.23043 -1.0202,0.65778 -1.70118,0.94967 -1.35904,0.58251 -1.80455,1.17251 -1.80455,2.38984 0,0.87362 0.15996,1.05673 3.07838,3.52388 1.03827,0.87772 2.16936,2.08725 2.51355,2.68786 0.60445,1.05478 0.6229,1.25387 0.54133,5.84065 -0.0558,3.13884 -0.202,5.03002 -0.43123,5.57864 -0.42573,1.01891 -2.32084,2.59193 -3.63035,3.01334 -0.53406,0.17187 -1.11418,0.48499 -1.28916,0.69582 -0.3665,0.4416 -2.01163,0.50651 -3.02947,0.11953 -0.65591,-0.24938 -0.72409,-0.19507 -1.24542,0.99218 -0.30334,0.69081 -0.68345,1.34419 -0.84468,1.45196 -0.16124,0.10778 -1.68288,0.73926 -3.38143,1.4033 -3.32745,1.30085 -3.93265,1.72049 -3.40252,2.35925 0.17648,0.21265 0.57801,0.46682 0.89229,0.56482 0.31428,0.098 1.12372,0.63839 1.79876,1.20087 1.17983,0.98309 1.30274,1.02272 3.175,1.02368 l 1.94766,0.001 0.51487,1.25163 c 0.28317,0.68839 0.64895,1.8488 0.81282,2.57869 0.27682,1.23291 0.36217,1.33646 1.20293,1.45937 1.02425,0.14973 1.2191,0.62901 1.27453,3.13499 0.0268,1.21035 0.1462,1.52253 0.82506,2.15667 0.48085,0.44919 0.79375,1.00762 0.79375,1.41662 0,0.75944 -0.50879,2.02297 -0.81458,2.02297 -0.11026,0 -0.35904,0.0563 -0.55285,0.12517 -0.1938,0.0689 -0.56073,0.003 -0.81539,-0.14544 z"
       id="Brunca"
       title="Brunca"
       inkscape:connector-curvature="0"
       inkscape:label="BruncaLabel"
       sodipodi:nodetypes="cscccscccssscssscssscsssscccsscccccscscccccscccscccscssccsccssssscssccccsscsccsccccsccscssscscscssscsssccccsssccccscscsscssccsccssccccsccccssccc">
      <desc
         id="desc4143">BruncaDesc</desc>
      <title
         id="title4141">BruncaTitle</title>
    </path>
    <path
       style="fill:#cccccc;stroke-width:0.26458332"
       d="m 20.439264,141.6487 -1.359408,-2.1031 -4.317886,-1.38035 c -2.374836,-0.7592 -4.7941337,-1.59613 -5.3762167,-1.85984 -0.582083,-0.26372 -1.560161,-0.4821 -2.173504,-0.4853 -0.884958,-0.005 -1.179111,-0.1287 -1.424901,-0.60112 -0.170352,-0.32742 -0.344892,-0.63668 -0.387866,-0.68724 -0.04297,-0.0506 -0.443566,0.12394 -0.890203,0.38778 -0.529384,0.31271 -0.812068,0.69009 -0.812068,1.08411 0,0.51437 -0.137959,0.60441 -0.926041,0.60441 -1.102683,0 -1.98437502,-0.76413 -1.98437502,-1.71979 0,-0.3638 -0.148828,-0.66249 -0.330729,-0.66376 -0.181901,-0.001 -1.81901098,-0.17882 -3.63802098,-0.39457 -1.819011,-0.21576 -4.527682,-0.39332 -6.01927,-0.39458 l -2.7119793,-0.002 v -2.3238 -2.3238 l -2.513542,-2.48231 c -1.382448,-1.36527 -2.513542,-2.57932 -2.513542,-2.6979 0,-0.38584 -2.132526,-1.31531 -2.644766,-1.15274 -0.546715,0.17353 -1.0594,-0.50886 -1.0594,-1.41006 0,-0.28554 -0.424879,-0.8922 -0.944174,-1.34815 -0.764235,-0.67099 -1.066537,-1.25105 -1.586235,-3.04367 -0.732609,-2.52702 -1.950729,-5.23975 -2.725069,-6.06867 -0.525335,-0.56237 -0.525379,-0.57398 -0.01156,-3.07103 0.283673,-1.37859 0.45871,-2.65522 0.388971,-2.83696 -0.06974,-0.18174 -0.578282,-0.5423 -1.130096,-0.80126 -1.493053,-0.70067 -1.516431,-1.64585 -0.06668,-2.69604 0.605802,-0.43884 1.320388,-0.86738 1.587969,-0.9523 0.306534,-0.0973 0.516828,-0.458845 0.568465,-0.977341 0.07702,-0.773377 0.208832,-0.866542 2.189155,-1.547315 2.913937,-1.001721 3.426797,-2.197404 1.225422,-2.856952 -0.979775,-0.293548 -1.071435,-0.39233 -0.920832,-0.992378 0.133691,-0.53267 0.0545,-0.695868 -0.394666,-0.813327 -1.014028,-0.265173 -0.421345,-2.119426 0.720437,-2.253943 0.475823,-0.05606 0.727478,-0.279596 0.834997,-0.741701 0.286231,-1.230188 2.956171,-1.633294 3.315674,-0.5006 0.08739,0.275331 0.240157,0.49861 0.339492,0.496179 0.09933,-0.0024 1.174849,-0.538213 2.390032,-1.190625 1.215182,-0.652413 2.43941,-1.186204 2.720504,-1.186204 0.283848,0 0.61578,-0.264684 0.746564,-0.595313 0.182306,-0.460875 0.114012,-0.699876 -0.30242,-1.058333 -0.295848,-0.254662 -0.758651,-0.463021 -1.028451,-0.463021 -0.411343,0 -1.038331,-0.695806 -1.038331,-1.152297 0,-0.07082 0.892969,-1.06018 1.984375,-2.198587 1.091406,-1.13841 1.9843753,-2.258169 1.9843753,-2.488354 0,-0.230187 -0.2976563,-0.698153 -0.6614583,-1.039929 -0.847748,-0.796417 -0.840222,-1.421111 0.02185,-1.813898 l 0.6833113,-0.311338 -0.4991793,-0.854713 c -0.699393,-1.197528 -2.060186,-2.047134 -3.278843,-2.047134 -0.555627,0 -1.428384,-0.199403 -1.939461,-0.443119 -0.869083,-0.414438 -0.960925,-0.414438 -1.418872,0 -0.661187,0.598366 -1.716399,0.558888 -2.300058,-0.08605 -0.292755,-0.32349 -0.814908,-0.529166 -1.343405,-0.529166 -0.753415,0 -0.903791,-0.119007 -1.170137,-0.926042 -0.293833,-0.890323 -0.355497,-0.926042 -1.598709,-0.926042 -1.022655,0 -1.352366,-0.110759 -1.576524,-0.529602 -0.426821,-0.797521 -1.977877,-1.32248 -3.907433,-1.32248 -1.587524,0 -1.819008,-0.07591 -2.878104,-0.943756 -1.887786,-1.546816 -1.342829,-2.864694 0.991558,-2.397817 0.998146,0.199629 2.755649,-0.637652 2.957331,-1.408884 0.132301,-0.505922 0.336776,-0.540351 3.14284,-0.529194 1.811018,0.0072 3.314156,0.145324 3.790103,0.348271 0.671411,0.286294 0.966663,0.265683 1.984375,-0.138524 0.657583,-0.261174 1.876495,-0.604159 2.708694,-0.762189 0.832199,-0.15803 1.784699,-0.517703 2.116667,-0.799275 0.580531,-0.4924 0.584966,-0.526377 0.116153,-0.889865 -0.268083,-0.207855 -0.976306,-0.460514 -1.573828,-0.561465 -1.474022,-0.249034 -2.568956,-1.358132 -2.568956,-2.602186 0,-2.013575 2.249479,-2.710137 3.978744,-1.232037 0.760119,0.649716 1.155527,0.784827 2.32294,0.79375 1.337211,0.01022 1.398092,-0.01873 1.229221,-0.58456 -0.32565,-1.091136 -0.932766,-1.802555 -1.92146,-2.251568 -0.53858,-0.244595 -1.025822,-0.474991 -1.082761,-0.511991 -0.05694,-0.037 0.330015,-0.59635 0.859896,-1.243 0.555785,-0.678262 0.96342,-1.464745 0.96342,-1.858803 0,-0.604512 0.106707,-0.683075 0.927776,-0.683075 0.8639373,0 1.0111353,-0.131992 2.1392153,-1.918229 3.072252,-4.8647 3.257566,-5.020015 4.666903,-3.911429 0.363829,0.286188 1.183558,0.602427 1.821619,0.702752 0.943288,0.148318 1.51046398,0.508544 3.03465998,1.927377 3.50158302,3.259524 5.61513302,3.993279 11.50247472,3.993279 h 3.873137 l 3.810336,1.69188 c 6.260659,2.779881 11.707736,4.614382 18.074963,6.087399 1.006065,0.232747 2.385706,0.78028 3.06587,1.21674 1.053936,0.676308 1.494293,0.793564 2.980235,0.793564 1.544672,0 1.802924,0.07546 2.263873,0.661459 0.433623,0.551261 0.745374,0.661458 1.871287,0.661458 0.74304,0 1.350983,0.119062 1.350983,0.264583 0,0.145521 0.416719,0.264584 0.926042,0.264584 0.646758,0 0.926042,-0.119693 0.926042,-0.396875 0,-0.220486 0.235185,-0.396875 0.529166,-0.396875 0.507455,0 0.52917,0.176399 0.529199,4.299479 3.2e-5,4.079357 -0.03619,4.382621 -0.707398,5.923432 -0.625779,1.436513 -0.897033,1.739908 -2.350074,2.628541 -0.951447,0.581874 -2.090161,1.58297 -2.706182,2.379128 -0.998025,1.289867 -1.777474,1.759344 -3.959815,2.385068 -0.548307,0.15721 -0.372806,1.156041 0.315153,1.793618 0.409588,0.379592 0.80628,1.237141 1.084318,2.344012 l 0.438438,1.745433 3.347453,1.380948 c 1.841098,0.759523 4.454252,1.782468 5.807011,2.273212 4.134485,1.499884 7.004519,3.630486 8.152813,6.052336 0.805773,1.69944 0.825728,3.331837 0.05349,4.376338 l -0.578925,0.783041 0.578925,0.78303 c 0.836297,1.13116 0.745011,2.36992 -0.2315,3.14138 l -0.781146,0.61712 -0.857861,-0.72336 c -2.185556,-1.84289 -3.784875,-1.69992 -4.290613,0.38356 -0.197128,0.81211 -0.584872,1.42141 -1.295437,2.03564 -0.989187,0.85509 -1.009663,0.90889 -0.833495,2.18978 0.155709,1.13214 0.113823,1.3351 -0.303856,1.47232 -0.687639,0.22592 -3.294028,2.79636 -3.927583,3.87341 -0.292989,0.49808 -0.741604,0.94584 -0.996919,0.99501 -0.255315,0.0492 -1.682472,-0.51549 -3.171459,-1.2548 -2.374747,-1.1791 -2.907819,-1.34407 -4.340308,-1.34323 -1.613701,0.001 -1.645422,0.0154 -2.67581,1.22088 l -1.042752,1.21992 -1.544201,-0.44892 -1.544204,-0.44891 -0.487857,0.66973 c -0.662474,0.90942 -2.439292,1.18721 -3.635883,0.56843 -0.472726,-0.24446 -1.11098,-0.3787 -1.418339,-0.29832 -0.34876,0.0912 -1.091226,-0.15433 -1.975082,-0.65315 -1.602693,-0.9045 -1.959658,-0.80048 -2.612472,0.76126 -0.528127,1.26346 0.228094,2.87371 1.884928,4.01364 2.521919,1.73512 4.411396,2.65683 5.446459,2.65683 0.571555,0 1.196499,0.18248 1.432221,0.4182 0.458399,0.4584 0.331327,0.90471 -0.25758,0.90471 -0.206311,0 -1.032557,0.26789 -1.8361,0.59531 -1.357981,0.55334 -1.461016,0.65717 -1.461359,1.47261 -7.94e-4,1.70078 -0.262621,1.86887 -2.303767,1.4785 -2.049383,-0.39194 -3.23119,-0.19438 -5.015762,0.83849 -1.427033,0.82593 -2.248612,2.16075 -2.271742,3.6909 -0.0099,0.65391 0.03066,1.23183 0.09011,1.28426 0.05945,0.0524 1.133401,0.16205 2.386566,0.24358 2.254308,0.14666 3.958693,0.63361 4.332028,1.23768 0.21689,0.35093 0.803077,2.78715 1.042403,4.33225 0.140184,0.90504 0.04397,1.1553 -0.864621,2.24895 -0.562298,0.67683 -1.157603,1.48836 -1.322898,1.8034 -0.269579,0.51379 -2.09513,1.14699 -3.30685,1.14699 -0.180925,0 -0.940689,-0.9464 -1.688365,-2.1031 z"
       id="Chorotega"
       title="Chorotega"
       inkscape:connector-curvature="0"
       inkscape:label="#ChorotegaLabel">
      <desc
         id="desc4123">ChorotegaDesc</desc>
      <title
         id="title4121">ChorotegaTitle</title>
    </path>
  </g>
</svg>
