<?xml version="1.0" encoding="UTF-8" standalone="no"?>
<!-- (c) ammap.com | SVG map of Jamaica - High -->

<svg
   xmlns:amcharts="http://amcharts.com/ammap"
   xmlns:dc="http://purl.org/dc/elements/1.1/"
   xmlns:cc="http://creativecommons.org/ns#"
   xmlns:rdf="http://www.w3.org/1999/02/22-rdf-syntax-ns#"
   xmlns:svg="http://www.w3.org/2000/svg"
   xmlns="http://www.w3.org/2000/svg"
   xmlns:sodipodi="http://sodipodi.sourceforge.net/DTD/sodipodi-0.dtd"
   xmlns:inkscape="http://www.inkscape.org/namespaces/inkscape"
   version="1.1"
   id="svg124"
   sodipodi:docname="jamaicaPARRLow.svg"
   width="798.15369"
   height="315.88269"
   inkscape:version="0.92.4 (5da689c313, 2019-01-14)">
  <metadata
     id="metadata128">
    <rdf:RDF>
      <cc:Work
         rdf:about="">
        <dc:format>image/svg+xml</dc:format>
        <dc:type
           rdf:resource="http://purl.org/dc/dcmitype/StillImage" />
        <dc:title></dc:title>
      </cc:Work>
    </rdf:RDF>
  </metadata>
  <sodipodi:namedview
     pagecolor="#ffffff"
     bordercolor="#666666"
     borderopacity="1"
     objecttolerance="10"
     gridtolerance="10"
     guidetolerance="10"
     inkscape:pageopacity="0"
     inkscape:pageshadow="2"
     inkscape:window-width="1366"
     inkscape:window-height="745"
     id="namedview126"
     showgrid="false"
     fit-margin-top="0"
     fit-margin-left="0"
     fit-margin-right="0"
     fit-margin-bottom="0"
     inkscape:zoom="1.44"
     inkscape:cx="412.75723"
     inkscape:cy="171.28588"
     inkscape:window-x="-8"
     inkscape:window-y="-8"
     inkscape:window-maximized="1"
     inkscape:current-layer="svg124" />
  <defs
     id="defs106">
    <style
       type="text/css"
       id="style104">
			.land
			{
				fill: #CCCCCC;
				fill-opacity: 1;
				stroke:white;
				stroke-opacity: 1;
				stroke-width:0.5;
			}
		</style>
    <amcharts:ammap
       projection="mercator"
       leftLongitude="-78.368846"
       topLatitude="18.525310"
       rightLongitude="-76.183159"
       bottomLatitude="17.705724" />
    <!-- All areas are listed in the line below. You can use this list in your script. -->
    <!--{id:"JM-03"},{id:"JM-02"},{id:"JM-05"},{id:"JM-14"},{id:"JM-06"},{id:"JM-04"},{id:"JM-01"},{id:"JM-10"},{id:"JM-07"},{id:"JM-08"},{id:"JM-11"},{id:"JM-12"},{id:"JM-09"},{id:"JM-13"}-->
  </defs>
  <g
     id="g122"
     transform="translate(-0.99223912,0.25078439)">
    <path
       id="JM-01" 
       title="Kingston" 
       class="land"
       d="M 565.89844 137.87109 L 563.80859 138.31055 L 559.14844 138.33984 L 556.92773 138.73047 L 555.51758 139.36133 L 555.02734 140.28125 L 554.64844 141.28125 L 553.75781 142.30078 L 552.92773 142.9707 L 547.98828 145.02148 L 547.12695 155.07031 L 547.30859 156.56055 L 547.87695 158.98047 L 550.29688 164 L 550.63867 165.90039 L 550.58789 167.35156 L 549.34766 170.12109 L 548.87695 170.95117 L 548.26758 171.68164 L 547.57812 172.32031 L 546.85742 172.87109 L 545.73828 174.90039 L 544.4668 178.10156 L 542.30859 185.85156 L 541.80859 189.19141 L 541.84766 191.36133 L 544.48828 193.74023 L 544.80859 194.14062 L 545.1875 194.75 L 545.86719 196.49023 L 546.35742 197.30078 L 547.02734 197.90039 L 547.87695 198.23047 L 548.88867 198.23047 L 549.80859 198.02148 L 551.67773 197.18164 L 552.64844 196.98047 L 555.13867 200.43164 L 556.31836 204.87109 L 561.10742 207.14062 L 567.59766 211.39062 L 569.99805 212.82031 L 575.20703 215.93164 L 582.6875 215.77148 L 593.69727 215.91992 L 598.47852 217.01172 L 600.31836 218.79102 L 601.17773 219.62109 L 602.83789 221.23047 L 562.77734 223.60156 L 562.77734 226.2207 L 581.79688 226.90039 L 587.4375 226.2207 L 600.64844 223.08008 L 608.2168 222.63086 L 613.82812 224.91016 L 616.55859 226.43164 L 626.63867 228.86133 L 628.82812 225.39062 L 631.12695 222.74023 L 631.50781 221.53125 L 631.6875 219.85156 L 631.47852 216.28125 L 631.84766 214.06055 L 633.45703 211.62109 L 634.87695 210.95117 L 636.34766 210.63086 L 639.9668 210.95117 L 640.97852 210.76172 L 641.55859 210.02148 L 641.55859 208.70117 L 640.37695 206.53125 L 637.73828 202.78125 L 637.09766 201.51172 L 635.08789 194.32031 L 634.08789 192.62109 L 633.23828 190.45117 L 632.74805 188.08008 L 632.89844 182.31055 L 633.36719 179.20117 L 633.98828 176.77148 L 637.34766 173.66992 L 620.86719 166.83008 L 616.13867 166.10156 L 615.44727 166.70117 L 614.89844 167.53125 L 614.08789 169.43164 L 613.34766 170.56055 L 611.58789 171.30078 L 607.92773 171.96094 L 603.20703 170.98047 L 600.83789 170.26172 L 599.47852 169.41992 L 598.36719 167.94141 L 597.91797 167.12109 L 594.6582 157.49023 L 594.52734 156.52148 L 592.25781 148.73047 L 571.99805 139.07031 L 565.89844 137.87109 z "
       transform="translate(0.99223912,-0.25078439)"
       style="fill:#cccccc;fill-opacity:1;stroke:#ffffff;stroke-width:0.5;stroke-opacity:1" />
    <path
       id="JM-03"
       title="Saint Thomas"
       class="land"
       d="m 675.75,193.31 -1.38,-0.15 -2.56,-1.49 -17.28,-5.48 -2.74,-1.31 -2.42,-1.65 -0.75,-0.65 -0.67,-0.69 -2.77,-3.77 -6.84,-4.7 -3.36,3.1 -0.62,2.43 -0.47,3.11 -0.15,5.77 0.49,2.37 0.85,2.17 1,1.7 2.01,7.19 0.64,1.27 2.64,3.75 1.18,2.17 v 1.32 l -0.58,0.74 -1.01,0.19 -3.62,-0.32 -1.47,0.32 -1.42,0.67 -1.61,2.44 -0.37,2.22 0.21,3.57 -0.18,1.68 -0.38,1.21 -2.3,2.65 -2.19,3.47 v 0 l 0.87,0.21 2.25,2.01 1.69,2.56 1.96,2.15 2.94,0.91 2.85,1.62 1.1,3.8 0.74,4.43 1.65,3.46 3.78,2.64 2.99,0.39 2.74,-0.53 2.94,-0.13 20.22,3.09 28.67,-2.49 10.96,-4.12 6.69,1.73 6.57,3.04 5.66,1.62 6.35,-1.93 5.84,-8.73 6.59,-2.42 -1.42,4.69 -1.03,1.31 -2.53,1.84 6.5,1.69 7.61,-2.22 13.28,-7.31 18.85,-4.77 3.8,-3.09 -9.95,-7.47 -6.85,-7.27 -5.37,-9.17 -2.93,-7.08 v -0.01 l -0.22,0.07 -10.16,3.17 -3.84,0.44 -13.29,-1.81 -4.94,-1.24 -1.42,-1.22 -1.02,-1.07 -2.39,-3.46 -0.61,-0.74 -0.68,-0.54 -1.95,-0.83 -10.79,-3.21 -11.93,-1.86 -8.01,-4.67 -1.81,-0.46 -1.48,-0.07 -1.85,0.78 -2.44,1.35 -1.31,0.36 -1.83,0.24 -5.14,0.03 -1.48,0.18 -0.86,0.44 -0.74,0.59 -1.63,1.59 -1.41,0.92 -2.96,1.1 z"
       inkscape:connector-curvature="0"
       style="fill:#cccccc;fill-opacity:1;stroke:#ffffff;stroke-width:0.5;stroke-opacity:1" />
    <path
       id="JM-04"
       title="Portland"
       class="land"
       d="m 771.1,196.92 -11.69,-25.63 -8.04,-11.55 -10.36,-9.95 -1.78,-7.98 -13.95,-5.06 -26.84,-5.06 -1.32,-1.69 -2.87,-5.49 -1.91,-1.16 h -27.38 l -3.01,-0.72 -2.25,-1.59 -1.82,-1.75 -2.03,-0.52 -6.34,-4.5 -12.11,0.77 -6.19,-1.94 -5.34,-3.47 -6.94,-7.03 -5.36,-2.86 -2.09,-0.46 h -0.01 l -1.08,1.24 -17.14,47.96 2.27,7.79 0.13,0.97 3.26,9.63 0.45,0.82 1.11,1.48 1.36,0.84 2.37,0.72 4.72,0.98 3.66,-0.66 1.76,-0.74 0.74,-1.13 0.81,-1.9 0.55,-0.83 0.69,-0.6 4.73,0.73 16.48,6.84 6.84,4.7 2.77,3.77 0.67,0.69 0.75,0.65 2.42,1.65 2.74,1.31 17.28,5.48 2.56,1.49 1.38,0.15 1.7,-0.17 2.96,-1.1 1.41,-0.92 1.63,-1.59 0.74,-0.59 0.86,-0.44 1.48,-0.18 5.14,-0.03 1.83,-0.24 1.31,-0.36 2.44,-1.35 1.85,-0.78 1.48,0.07 1.81,0.46 8.01,4.67 11.93,1.86 10.79,3.21 1.95,0.83 0.68,0.54 0.61,0.74 2.39,3.46 1.02,1.07 1.42,1.22 4.94,1.24 13.29,1.81 3.84,-0.44 10.16,-3.17 0.22,-0.07 z"
       inkscape:connector-curvature="0"
       style="fill:#cccccc;fill-opacity:1;stroke:#ffffff;stroke-width:0.5;stroke-opacity:1" />
    <path
       id="JM-05"
       title="Saint Mary"
       class="land"
       d="m 611.48,99.28 -4.17,-0.93 -18.88,-1.47 -6.63,-1.84 -3.49,-2.14 -2.17,-3.33 -3.39,-10.08 -1.87,-3.73 -11.47,-6.7 -12.97,-8.19 -4.07,-3.72 0.01,-5.19 1.12,-4.08 -2.58,-3.34 -4.45,-0.75 -4.82,-0.38 -5.94,0.73 -4.2,2.23 -21.58,0.92 -4.32,-0.78 -7.61,-3.6 -4.36,-1.09 -6.7,1.14 v 0 l 0.3,1.73 3.15,14.07 0.22,1.99 0.72,2.76 0.75,1.36 1.92,1.85 0.99,1.4 0.66,1.44 -0.78,8.61 0.13,1.16 0.77,1.42 4.52,5.38 1.55,2.45 1.12,3.53 0.51,3.26 0.58,2.11 0.44,1.01 2.42,3.26 7,7.06 5.59,-1.7 1.05,-0.21 1.13,-0.06 6.99,0.77 1.2,0.87 1.09,1.39 2.2,5.27 1.23,1.69 2.89,2.11 1.55,1.69 1.4,2.99 0.78,3.1 0.45,3.27 0.79,1.63 4.26,5.88 3.86,3.77 8.61,3.5 4.94,-2.05 0.83,-0.67 0.89,-1.02 0.38,-1 0.49,-0.92 1.41,-0.63 2.22,-0.39 4.66,-0.03 2.09,-0.44 6.1,1.2 20.26,9.66 17.14,-47.96 1.08,-1.24 z"
       inkscape:connector-curvature="0"
       style="fill:#cccccc;fill-opacity:1;stroke:#ffffff;stroke-width:0.5;stroke-opacity:1" />
    <path
       id="JM-06"
       title="Saint Ann"
       class="land"
       d="m 476.94,42.96 -12.54,2.11 -11.9,-0.4 -1.9,-1.22 -6.14,-5.43 -2.02,-1.22 -16.29,-2.86 0.28,0.72 -1.16,1.22 -1.97,0.94 -2.14,-0.02 -1.76,-1.64 -1.36,-4.76 -1.63,-1.72 -13.23,-3.41 -19.22,-2.17 -18.68,-0.05 -11.58,3 -7.51,-4.57 -9.52,-2.34 -3.76,-0.28 -0.14,0.79 -0.79,7.64 0.3,3.15 4.18,10.89 0.29,2.77 -0.29,2.23 -0.98,2.42 0.01,1.38 0.51,1.08 1.94,2.42 0.12,1.76 -0.11,1.89 -14.48,69.14 8.58,2.83 9.27,1.6 1.58,-0.07 1.73,-0.32 2.6,-1.07 1.37,-0.77 2.54,-2.01 0.89,-0.43 12.36,-2.82 1.51,0.03 1.87,0.31 7.02,2.82 17.9,3.29 33.01,0.45 48.9,-6.22 7.42,-2.87 21.89,-12.36 -7,-7.06 -2.42,-3.26 -0.44,-1.01 -0.58,-2.11 -0.51,-3.26 -1.12,-3.53 -1.55,-2.45 -4.52,-5.38 -0.77,-1.42 -0.13,-1.16 0.78,-8.61 -0.66,-1.44 -0.99,-1.4 -1.92,-1.85 -0.75,-1.36 -0.72,-2.76 -0.22,-1.99 -3.15,-14.07 z"
       inkscape:connector-curvature="0"
       style="fill:#cccccc;fill-opacity:1;stroke:#ffffff;stroke-width:0.5;stroke-opacity:1" />
    <path
       id="JM-07"
       title="Trelawny"
       class="land"
       d="m 332.91,18.86 -21.52,-1.6 -15.67,-3.83 -35.48,-0.68 -25.89,-5.68 -0.13,0.68 -16.59,103.95 51.45,5.21 4.7,-1.18 2.23,-0.83 4.04,-2.47 2.67,-1.25 2.04,-0.56 2.1,0.06 13.94,2.11 1.16,-0.04 5.22,2.3 16.29,11.37 14.48,-69.14 0.11,-1.89 -0.12,-1.76 -1.94,-2.42 -0.51,-1.08 -0.01,-1.38 0.98,-2.42 0.29,-2.23 -0.29,-2.77 -4.18,-10.89 -0.3,-3.15 0.79,-7.64 z"
       inkscape:connector-curvature="0"
       style="fill:#cccccc;fill-opacity:1;stroke:#ffffff;stroke-width:0.5;stroke-opacity:1" />
    <path
       id="JM-08"
       title="Saint James"
       class="land"
       d="m 188.27,0 -14.75,2.43 -6.44,2.92 -3.75,3.52 -8.27,10.61 -2.26,3.98 0.11,2.94 -0.36,2.52 -3.69,2.62 -4.16,0.66 -4.03,-1.02 -2.82,-1.03 h -0.01 l -0.05,3.66 -0.19,1.16 -2.42,8.62 0.66,1.36 1.25,1.53 5.93,4.93 0.62,1.04 0.89,1.88 0.57,2.77 1.01,2.4 4.13,7.61 1.81,4.15 0.75,0.81 1.32,0.95 5.09,2.68 1.81,1.73 0.91,1.22 4.63,9.36 4,8.61 2.09,2.53 0.9,0.47 0.76,0.57 0.66,0.71 0.54,0.74 1.08,1.91 2.92,9.28 -0.17,3.65 -3.47,10.15 41.76,-14.93 16.59,-103.95 0.13,-0.68 v 0 L 204.98,0.64 Z"
       inkscape:connector-curvature="0"
       style="fill:#cccccc;fill-opacity:1;stroke:#ffffff;stroke-width:0.5;stroke-opacity:1" />
    <path
       id="JM-09"
       title="Hanover"
       class="land"
       d="m 137.84,30.15 -3.94,-1.47 -7.87,-0.05 -23.59,2.91 -8.3,-1.64 -6.76,-2.5 -5.79,0.12 -5.42,6.42 -9.37,-7.17 -13,4.32 -11.19,10.32 -3.77,10.89 -6.12,-2.03 -3.75,3.06 -2.89,4.5 -3.57,2.33 -5.66,0.47 -1.28,1.52 -0.31,2.89 -2.78,4.55 -0.69,3.28 0.51,11.59 -0.6,2.85 v 0 l 3.3,0.25 19.69,2.86 1.97,0.02 1.87,-0.38 1.8,-1.42 13.68,-16.18 2.08,-0.56 45.27,-0.21 3.39,0.47 3.18,0.9 20.07,11.67 7.99,1.46 30.57,1.82 -4.63,-9.36 -0.91,-1.22 -1.81,-1.73 -5.09,-2.68 -1.32,-0.95 -0.75,-0.81 -1.81,-4.15 -4.13,-7.61 -1.01,-2.4 -0.57,-2.77 -0.89,-1.88 -0.62,-1.04 -5.93,-4.93 -1.25,-1.53 -0.66,-1.36 2.42,-8.62 0.19,-1.16 z"
       inkscape:connector-curvature="0"
       style="fill:#cccccc;fill-opacity:1;stroke:#ffffff;stroke-width:0.5;stroke-opacity:1" />
    <path
       id="JM-10"
       title="Westmoreland"
       class="land"
       d="M 166.56,88.01 135.99,86.19 128,84.73 107.93,73.06 l -3.18,-0.9 -3.39,-0.47 -45.27,0.21 -2.08,0.56 -13.68,16.18 -1.8,1.42 -1.87,0.38 L 34.69,90.42 15,87.56 11.7,87.31 v 0 l -0.46,2.2 -2.56,3.22 -5.4,3.82 -2.02,3.19 1.61,6.71 4.57,5.9 6.2,4.17 6.41,1.6 6.29,0.79 11.22,3.61 5.11,0.83 0.9,0.56 8.98,3.63 2.46,0.51 2.81,-1.54 3.43,-3.16 5.99,0.06 16.4,2.78 26.84,-0.67 9.08,5.11 6.86,13.92 2.23,9.08 1.75,4.64 2.25,2.01 2.91,0.77 3.64,1.86 3.13,2.17 2.88,4.18 5.59,13 h 0.01 l 2.54,-4.96 7.18,-20.76 0.83,-5.69 -0.34,-0.91 -0.51,-2.02 -0.08,-1.07 0.12,-1.15 0.61,-2.38 2.32,-4.87 4.01,-6.41 1.63,-1.64 1.24,-1.03 5.51,-2.74 3.47,-10.15 0.17,-3.65 -2.92,-9.28 -1.08,-1.91 -0.54,-0.74 -0.66,-0.71 -0.76,-0.57 -0.9,-0.47 -2.09,-2.53 z"
       inkscape:connector-curvature="0"
       style="fill:#cccccc;fill-opacity:1;stroke:#ffffff;stroke-width:0.5;stroke-opacity:1" />
    <path
       id="JM-11"
       title="Saint Elizabeth"
       class="land"
       d="m 269.08,116.91 -51.45,-5.21 -41.76,14.93 -5.51,2.74 -1.24,1.03 -1.63,1.64 -4.01,6.41 -2.32,4.87 -0.61,2.38 -0.12,1.15 0.08,1.07 0.51,2.02 0.34,0.91 -0.83,5.69 -7.18,20.76 -2.54,4.96 h -0.01 l 3.04,7.06 5.82,2.17 25.29,0.22 9.27,3.41 2.27,8.13 -0.65,9.68 0.53,8.05 2.05,1.65 6.53,2.34 1.38,2.43 0.76,3.11 3.78,9.82 1.59,2.9 3.22,2.53 12.84,6.37 7.59,5.18 2.5,0.47 49.41,-2.84 8.69,1.49 -0.01,-0.01 -0.89,-1.72 -24.89,-103.37 z"
       inkscape:connector-curvature="0"
       style="fill:#cccccc;fill-opacity:1;stroke:#ffffff;stroke-width:0.5;stroke-opacity:1" />
    <path
       id="JM-12"
       title="Manchester"
       class="land"
       d="m 300.8,112.79 -13.94,-2.11 -2.1,-0.06 -2.04,0.56 -2.67,1.25 -4.04,2.47 -2.23,0.83 -4.7,1.18 1.84,34.42 24.89,103.37 0.89,1.72 0.01,0.01 6.95,1.19 15.93,4.62 7.73,-0.69 7.71,-5.24 6.73,-2.77 8.5,1.12 8.06,2.98 0.37,0.22 h 0.01 l 1.03,-0.98 0.74,-0.49 1.06,-0.33 3.25,0.4 1.13,-0.06 0.96,-0.21 0.75,-0.53 0.6,-0.72 0.41,-0.99 0.73,-4.68 2.17,-7.14 0.15,-1.21 -0.36,-1.27 -0.81,-1.35 -4.16,-3.61 -1.7,-2.25 -0.62,-1.66 -0.64,-2.31 -0.81,-5.2 -0.18,-2.59 0.11,-1.86 1.02,-3.02 0.51,-2.17 -39.7,-81.5 -0.87,-5.71 -16.29,-11.37 -5.22,-2.3 z"
       inkscape:connector-curvature="0"
       style="fill:#cccccc;fill-opacity:1;stroke:#ffffff;stroke-width:0.5;stroke-opacity:1" />
    <path
       id="JM-13"
       title="Clarendon"
       class="land"
       d="m 444.93,315.38 8.92,-2.78 1.12,-6.6 -3.7,-14.4 -7.35,2.24 -7.09,0.6 -6.77,-1.5 -6.41,-3.96 3.54,-2.96 3.79,-1.35 3.92,0.18 3.91,1.78 -0.9,-2.43 -0.63,-3.88 -0.95,-2.01 2.67,-1.12 4.63,-2.83 2.65,-1.06 -2.76,-10.61 1.43,-3.49 5.99,-11.98 2.57,-1.52 -1.71,-18.33 0.13,-1.25 -0.33,-1.61 -0.63,-1.71 -7.07,-9.41 -0.47,-0.89 -0.43,-1.06 -0.43,-2.23 -0.29,-2.93 -0.1,-13.39 -0.48,-1.93 -0.88,-2.54 -2.03,-3.77 -2.06,-3.1 -0.59,-0.7 -1.47,-2.33 -0.31,-1.38 -0.12,-1.88 0.85,-5.55 1.05,-3.59 1.35,-2.72 -1.44,-6.84 -10.35,-26.3 -33.01,-0.45 -17.9,-3.29 -7.02,-2.82 -1.87,-0.31 -1.51,-0.03 -12.36,2.82 -0.89,0.43 -2.54,2.01 -1.37,0.77 -2.6,1.07 -1.73,0.32 -1.58,0.07 -9.27,-1.6 -8.58,-2.83 0.87,5.71 39.7,81.5 -0.51,2.17 -1.02,3.02 -0.11,1.86 0.18,2.59 0.81,5.2 0.64,2.31 0.62,1.66 1.7,2.25 4.16,3.61 0.81,1.35 0.36,1.27 -0.15,1.21 -2.17,7.14 -0.73,4.68 -0.41,0.99 -0.6,0.72 -0.75,0.53 -0.96,0.21 -1.13,0.06 -3.25,-0.4 -1.06,0.33 -0.74,0.49 -1.03,0.98 h -0.01 l 26.89,15.68 6.56,8.27 31.66,28.39 6.74,3.26 6.8,1.54 z"
       inkscape:connector-curvature="0"
       style="fill:#cccccc;fill-opacity:1;stroke:#ffffff;stroke-width:0.5;stroke-opacity:1" />
    <path
       id="JM-14"
       title="Saint Catherine"
       class="land"
       d="m 548.98,144.77 -8.61,-3.5 -3.86,-3.77 -4.26,-5.88 -0.79,-1.63 -0.45,-3.27 -0.78,-3.1 -1.4,-2.99 -1.55,-1.69 -2.89,-2.11 -1.23,-1.69 -2.2,-5.27 -1.09,-1.39 -1.2,-0.87 -6.99,-0.77 -1.13,0.06 -1.05,0.21 -5.59,1.7 -21.89,12.36 -7.42,2.87 -48.9,6.22 10.35,26.3 1.44,6.84 -1.35,2.72 -1.05,3.59 -0.85,5.55 0.12,1.88 0.31,1.38 1.47,2.33 0.59,0.7 2.06,3.1 2.03,3.77 0.88,2.54 0.48,1.93 0.1,13.39 0.29,2.93 0.43,2.23 0.43,1.06 0.47,0.89 7.07,9.41 0.63,1.71 0.33,1.61 -0.13,1.25 1.71,18.33 5.65,-3.33 9.52,-3.33 10.5,1.15 4.46,1.73 3.82,2.99 4.93,6.65 3.93,3.44 -7.7,2.62 v 2.84 h 20.15 l 4.01,1.59 2.94,2 3.17,1.44 4.81,-0.04 5.85,-3.74 4.84,-6.88 6.52,-23.15 1.42,-8.75 1.42,-2.82 4.8,0.58 1.39,-2.95 4.53,-5.12 1.71,-4.05 1.13,-3.95 -1.18,-4.44 -2.49,-3.45 -0.97,0.2 -1.87,0.84 -0.92,0.21 h -1.01 l -0.85,-0.33 -0.67,-0.6 -0.49,-0.81 -0.68,-1.74 -0.38,-0.61 -0.32,-0.4 -2.64,-2.38 -0.04,-2.17 0.5,-3.34 2.16,-7.75 1.27,-3.2 1.12,-2.03 0.72,-0.55 0.69,-0.64 0.61,-0.73 0.47,-0.83 1.24,-2.77 0.05,-1.45 -0.34,-1.9 -2.42,-5.02 -0.57,-2.42 -0.18,-1.49 z"
       inkscape:connector-curvature="0"
       style="fill:#cccccc;fill-opacity:1;stroke:#ffffff;stroke-width:0.5;stroke-opacity:1" />
  </g>
</svg>
