<?xml version="1.0" encoding="UTF-8" standalone="no"?>
<!-- (c) ammap.com | SVG map of Jamaica - High -->

<svg
   xmlns:amcharts="http://amcharts.com/ammap"
   xmlns:dc="http://purl.org/dc/elements/1.1/"
   xmlns:cc="http://creativecommons.org/ns#"
   xmlns:rdf="http://www.w3.org/1999/02/22-rdf-syntax-ns#"
   xmlns:svg="http://www.w3.org/2000/svg"
   xmlns="http://www.w3.org/2000/svg"
   xmlns:sodipodi="http://sodipodi.sourceforge.net/DTD/sodipodi-0.dtd"
   xmlns:inkscape="http://www.inkscape.org/namespaces/inkscape"
   version="1.1"
   id="svg116"
   sodipodi:docname="jamaicaRegionHigh.svg"
   width="798.15369"
   height="315.88269"
   inkscape:version="0.92.2 (5c3e80d, 2017-08-06)">
  <metadata
     id="metadata120">
    <rdf:RDF>
      <cc:Work
         rdf:about="">
        <dc:format>image/svg+xml</dc:format>
        <dc:type
           rdf:resource="http://purl.org/dc/dcmitype/StillImage" />
        <dc:title></dc:title>
      </cc:Work>
    </rdf:RDF>
  </metadata>
  <sodipodi:namedview
     pagecolor="#ffffff"
     bordercolor="#666666"
     borderopacity="1"
     objecttolerance="10"
     gridtolerance="10"
     guidetolerance="10"
     inkscape:pageopacity="0"
     inkscape:pageshadow="2"
     inkscape:window-width="1366"
     inkscape:window-height="715"
     id="namedview118"
     showgrid="false"
     fit-margin-top="0"
     fit-margin-left="0"
     fit-margin-right="0"
     fit-margin-bottom="0"
     inkscape:zoom="0.91216775"
     inkscape:cx="442.89435"
     inkscape:cy="134.07716"
     inkscape:window-x="-8"
     inkscape:window-y="-8"
     inkscape:window-maximized="1"
     inkscape:current-layer="g114" />
  <defs
     id="defs98">
    <style
       type="text/css"
       id="style96">
			.land
			{
				fill: #CCCCCC;
				fill-opacity: 1;
				stroke:white;
				stroke-opacity: 1;
				stroke-width:0.5;
			}
		</style>
    <amcharts:ammap
       projection="mercator"
       leftLongitude="-78.368846"
       topLatitude="18.525310"
       rightLongitude="-76.183159"
       bottomLatitude="17.705724" />
    <!-- All areas are listed in the line below. You can use this list in your script. -->
    <!--{id:"JM-03"},{id:"JM-02"},{id:"JM-05"},{id:"JM-14"},{id:"JM-06"},{id:"JM-04"},{id:"JM-01"},{id:"JM-10"},{id:"JM-07"},{id:"JM-08"},{id:"JM-11"},{id:"JM-12"},{id:"JM-09"},{id:"JM-13"}-->
  </defs>
  <g
     id="g114"
     transform="translate(-0.99223912,0.25078439)">
    <path
       style="fill:#cccccc;fill-opacity:1;stroke:#ffffff;stroke-width:0.5;stroke-opacity:1"
       d="M 510.6875 107.08984 L 509.55859 107.15039 L 508.50781 107.36133 L 502.91797 109.06055 L 481.02734 121.41992 L 473.60742 124.29102 L 424.70703 130.51172 L 435.05859 156.81055 L 436.49805 163.65039 L 435.14844 166.37109 L 434.09766 169.96094 L 433.24805 175.51172 L 433.36719 177.39062 L 433.67773 178.77148 L 435.14844 181.10156 L 435.73828 181.80078 L 437.79688 184.90039 L 439.82812 188.66992 L 440.70703 191.21094 L 441.1875 193.14062 L 441.28711 206.53125 L 441.57812 209.46094 L 442.00781 211.69141 L 442.4375 212.75 L 442.9082 213.64062 L 449.97852 223.05078 L 450.60742 224.76172 L 450.9375 226.37109 L 450.80859 227.62109 L 452.51758 245.95117 L 458.16797 242.62109 L 467.6875 239.29102 L 478.1875 240.44141 L 482.64844 242.16992 L 486.4668 245.16016 L 491.39844 251.81055 L 495.32812 255.25 L 487.62695 257.87109 L 487.62695 260.71094 L 507.77734 260.71094 L 511.78711 262.30078 L 514.72852 264.30078 L 517.89844 265.74023 L 522.70703 265.70117 L 528.55859 261.96094 L 533.39844 255.08008 L 539.91797 231.93164 L 541.33789 223.18164 L 542.75781 220.36133 L 547.55859 220.94141 L 548.94727 217.99023 L 553.47852 212.87109 L 555.1875 208.82031 L 556.31836 204.87109 L 561.10742 207.14062 L 567.59766 211.39062 L 569.99805 212.82031 L 575.20703 215.93164 L 582.6875 215.77148 L 593.69727 215.91992 L 598.47852 217.01172 L 600.31836 218.79102 L 601.17773 219.62109 L 602.83789 221.23047 L 562.77734 223.60156 L 562.77734 226.2207 L 581.79688 226.90039 L 587.4375 226.2207 L 600.64844 223.08008 L 608.2168 222.63086 L 613.82812 224.91016 L 616.55859 226.43164 L 626.63867 228.86133 L 627.50781 229.07031 L 629.75781 231.08008 L 631.44727 233.64062 L 633.4082 235.79102 L 636.34766 236.70117 L 639.19727 238.32031 L 640.29688 242.12109 L 641.03711 246.55078 L 642.6875 250.01172 L 646.4668 252.65039 L 649.45703 253.04102 L 652.19727 252.51172 L 655.13867 252.38086 L 675.35742 255.4707 L 704.02734 252.98047 L 714.98828 248.86133 L 721.67773 250.58984 L 728.24805 253.63086 L 733.9082 255.25 L 740.25781 253.32031 L 746.09766 244.58984 L 752.6875 242.16992 L 751.26758 246.86133 L 750.23828 248.16992 L 747.70703 250.01172 L 754.20703 251.70117 L 761.81836 249.48047 L 775.09766 242.16992 L 793.94727 237.40039 L 797.74805 234.31055 L 787.79688 226.83984 L 780.94727 219.57031 L 775.57812 210.40039 L 772.64844 203.32031 L 772.64844 203.31055 L 772.42773 203.38086 L 762.26758 206.55078 L 758.42773 206.99023 L 745.13867 205.18164 L 740.19727 203.94141 L 738.77734 202.7207 L 737.75781 201.65039 L 735.36719 198.19141 L 734.75781 197.45117 L 734.07812 196.91016 L 732.12695 196.08008 L 721.33789 192.87109 L 709.4082 191.01172 L 701.39844 186.33984 L 699.58789 185.88086 L 698.10742 185.81055 L 696.25781 186.58984 L 693.81836 187.94141 L 692.50781 188.30078 L 690.67773 188.54102 L 685.53711 188.57031 L 684.05859 188.75 L 683.19727 189.19141 L 682.45703 189.78125 L 680.82812 191.37109 L 679.41797 192.29102 L 676.45703 193.39062 L 674.75781 193.56055 L 673.37695 193.41016 L 670.81836 191.91992 L 653.53711 186.44141 L 650.79688 185.13086 L 648.37695 183.48047 L 647.62695 182.83008 L 646.95703 182.14062 L 644.1875 178.37109 L 637.34766 173.66992 L 620.86719 166.83008 L 616.13867 166.10156 L 615.44727 166.70117 L 614.89844 167.53125 L 614.08789 169.43164 L 613.34766 170.56055 L 611.58789 171.30078 L 607.92773 171.96094 L 603.20703 170.98047 L 600.83789 170.26172 L 599.47852 169.41992 L 598.36719 167.94141 L 597.91797 167.12109 L 594.6582 157.49023 L 594.52734 156.52148 L 592.25781 148.73047 L 571.99805 139.07031 L 565.89844 137.87109 L 563.80859 138.31055 L 559.14844 138.33984 L 556.92773 138.73047 L 555.51758 139.36133 L 555.02734 140.28125 L 554.64844 141.28125 L 553.75781 142.30078 L 552.92773 142.9707 L 547.98828 145.02148 L 539.37695 141.52148 L 535.51758 137.75 L 531.25781 131.87109 L 530.4668 130.24023 L 530.01758 126.9707 L 529.23828 123.87109 L 527.83789 120.88086 L 526.28711 119.19141 L 523.39844 117.08008 L 522.16797 115.39062 L 519.9668 110.12109 L 518.87695 108.73047 L 517.67773 107.86133 L 510.6875 107.08984 z "
       transform="translate(0.99223912,-0.25078439)"
       id="JM-SouthEast">
      <desc
         id="desc136">Region South East</desc>
      <title
         id="title134">South East</title>
    </path>
    <path
       style="fill:#cccccc;fill-opacity:1;stroke:#ffffff;stroke-width:0.5;stroke-opacity:1"
       d="M 331.91797 19.111328 L 331.77734 19.900391 L 330.98828 27.541016 L 331.28711 30.691406 L 335.4668 41.580078 L 335.75781 44.351562 L 335.4668 46.580078 L 334.48828 49 L 334.49805 50.380859 L 335.00781 51.460938 L 336.94727 53.880859 L 337.06836 55.640625 L 336.95703 57.53125 L 322.47852 126.66992 L 331.05859 129.5 L 340.32812 131.10156 L 341.9082 131.03125 L 343.63867 130.71094 L 346.23828 129.64062 L 347.60742 128.87109 L 350.14844 126.86133 L 351.03711 126.43164 L 363.39844 123.61133 L 364.9082 123.64062 L 366.77734 123.95117 L 373.79688 126.77148 L 391.69727 130.06055 L 424.70703 130.51172 L 473.60742 124.29102 L 481.02734 121.41992 L 502.91797 109.06055 L 508.50781 107.36133 L 509.55859 107.15039 L 510.6875 107.08984 L 517.67773 107.86133 L 518.87695 108.73047 L 519.9668 110.12109 L 522.16797 115.39062 L 523.39844 117.08008 L 526.28711 119.19141 L 527.83789 120.88086 L 529.23828 123.87109 L 530.01758 126.9707 L 530.4668 130.24023 L 531.25781 131.87109 L 535.51758 137.75 L 539.37695 141.52148 L 547.98828 145.02148 L 552.92773 142.9707 L 553.75781 142.30078 L 554.64844 141.28125 L 555.02734 140.28125 L 555.51758 139.36133 L 556.92773 138.73047 L 559.14844 138.33984 L 563.80859 138.31055 L 565.89844 137.87109 L 571.99805 139.07031 L 592.25781 148.73047 L 594.52734 156.52148 L 594.6582 157.49023 L 597.91797 167.12109 L 598.36719 167.94141 L 599.47852 169.41992 L 600.83789 170.26172 L 603.20703 170.98047 L 607.92773 171.96094 L 611.58789 171.30078 L 613.34766 170.56055 L 614.08789 169.43164 L 614.89844 167.53125 L 615.44727 166.70117 L 616.13867 166.10156 L 620.86719 166.83008 L 637.34766 173.66992 L 644.1875 178.37109 L 646.95703 182.14062 L 647.62695 182.83008 L 648.37695 183.48047 L 650.79688 185.13086 L 653.53711 186.44141 L 670.81836 191.91992 L 673.37695 193.41016 L 674.75781 193.56055 L 676.45703 193.39062 L 679.41797 192.29102 L 680.82812 191.37109 L 682.45703 189.78125 L 683.19727 189.19141 L 684.05859 188.75 L 685.53711 188.57031 L 690.67773 188.54102 L 692.50781 188.30078 L 693.81836 187.94141 L 696.25781 186.58984 L 698.10742 185.81055 L 699.58789 185.88086 L 701.39844 186.33984 L 709.4082 191.01172 L 721.33789 192.87109 L 732.12695 196.08008 L 734.07812 196.91016 L 734.75781 197.45117 L 735.36719 198.19141 L 737.75781 201.65039 L 738.77734 202.7207 L 740.19727 203.94141 L 745.13867 205.18164 L 758.42773 206.99023 L 762.26758 206.55078 L 772.42773 203.38086 L 772.64844 203.31055 L 770.10742 197.16992 L 758.41797 171.54102 L 750.37695 159.99023 L 740.01758 150.04102 L 738.23828 142.06055 L 724.28711 137 L 697.44727 131.94141 L 696.12695 130.25 L 693.25781 124.76172 L 691.34766 123.60156 L 663.9668 123.60156 L 660.95703 122.88086 L 658.70703 121.29102 L 656.88867 119.54102 L 654.85742 119.02148 L 648.51758 114.52148 L 636.4082 115.29102 L 630.2168 113.35156 L 624.87695 109.88086 L 617.9375 102.85156 L 612.57812 99.990234 L 610.48828 99.53125 L 606.31836 98.601562 L 587.4375 97.130859 L 580.80859 95.291016 L 577.31836 93.150391 L 575.14844 89.820312 L 571.75781 79.740234 L 569.88867 76.011719 L 558.41797 69.310547 L 545.44727 61.121094 L 541.37695 57.400391 L 541.38867 52.210938 L 542.50781 48.130859 L 539.92773 44.791016 L 535.47852 44.041016 L 530.6582 43.660156 L 524.7168 44.390625 L 520.51758 46.621094 L 498.9375 47.541016 L 494.61719 46.761719 L 487.00781 43.160156 L 482.64844 42.070312 L 475.94727 43.210938 L 463.4082 45.320312 L 451.50781 44.919922 L 449.60742 43.701172 L 443.4668 38.271484 L 441.44727 37.050781 L 425.1582 34.191406 L 425.4375 34.910156 L 424.27734 36.130859 L 422.30859 37.070312 L 420.16797 37.050781 L 418.4082 35.410156 L 417.04688 30.650391 L 415.41797 28.931641 L 402.1875 25.521484 L 382.9668 23.351562 L 364.28711 23.300781 L 352.70703 26.300781 L 345.19727 21.730469 L 335.67773 19.390625 L 331.91797 19.111328 z "
       transform="translate(0.99223912,-0.25078439)"
       id="JM-NorthEast">
      <desc
         id="desc140">Region North East</desc>
      <title
         id="title138">North East</title>
    </path>
    <path
       style="fill:#cccccc;fill-opacity:1;stroke:#ffffff;stroke-width:0.5;stroke-opacity:1"
       d="M 187.27734 0.25 L 172.52734 2.6816406 L 166.08789 5.6015625 L 162.33789 9.1210938 L 154.06836 19.730469 L 151.80859 23.710938 L 151.91797 26.650391 L 151.55859 29.169922 L 147.86719 31.791016 L 143.70703 32.451172 L 139.67773 31.431641 L 136.85742 30.400391 L 136.84766 30.400391 L 132.9082 28.931641 L 125.03711 28.880859 L 101.44727 31.791016 L 93.148438 30.150391 L 86.388672 27.650391 L 80.597656 27.771484 L 75.177734 34.191406 L 65.808594 27.021484 L 52.808594 31.339844 L 41.617188 41.660156 L 37.847656 52.550781 L 31.728516 50.521484 L 27.978516 53.580078 L 25.087891 58.080078 L 21.517578 60.410156 L 15.857422 60.880859 L 14.578125 62.400391 L 14.267578 65.291016 L 11.488281 69.839844 L 10.796875 73.121094 L 11.308594 84.710938 L 10.707031 87.560547 L 10.248047 89.761719 L 7.6875 92.980469 L 2.2871094 96.800781 L 0.26757812 99.990234 L 1.8769531 106.70117 L 6.4472656 112.60156 L 12.648438 116.77148 L 19.058594 118.37109 L 25.347656 119.16016 L 36.568359 122.77148 L 41.677734 123.60156 L 42.578125 124.16016 L 51.558594 127.79102 L 54.017578 128.30078 L 56.828125 126.76172 L 60.257812 123.60156 L 66.248047 123.66016 L 82.648438 126.44141 L 109.48828 125.77148 L 118.56836 130.88086 L 125.42773 144.80078 L 127.6582 153.88086 L 129.4082 158.52148 L 131.6582 160.53125 L 134.56836 161.30078 L 138.20703 163.16016 L 141.33789 165.33008 L 144.2168 169.51172 L 149.80859 182.51172 L 149.81836 182.51172 L 152.35742 177.55078 L 159.53711 156.79102 L 160.36719 151.10156 L 160.02734 150.19141 L 159.51758 148.16992 L 159.4375 147.10156 L 159.55859 145.95117 L 160.16797 143.57031 L 162.48828 138.70117 L 166.49805 132.29102 L 168.12695 130.65039 L 169.36719 129.62109 L 174.87695 126.88086 L 216.63867 111.95117 L 268.08789 117.16016 L 272.78711 115.98047 L 275.01758 115.15039 L 279.05859 112.68164 L 281.72852 111.43164 L 283.76758 110.87109 L 285.86719 110.93164 L 299.80859 113.04102 L 300.9668 113 L 306.1875 115.30078 L 322.47852 126.66992 L 336.95703 57.53125 L 337.06836 55.640625 L 336.94727 53.880859 L 335.00781 51.460938 L 334.49805 50.380859 L 334.48828 49 L 335.4668 46.580078 L 335.75781 44.351562 L 335.4668 41.580078 L 331.28711 30.691406 L 330.98828 27.541016 L 331.77734 19.900391 L 331.91797 19.111328 L 310.39844 17.511719 L 294.72852 13.681641 L 259.24805 13 L 233.35742 7.3203125 L 203.98828 0.890625 L 187.27734 0.25 z "
       transform="translate(0.99223912,-0.25078439)"
       id="JM-Western">
      <desc
         id="desc128">Region Western</desc>
      <title
         id="title126">Western</title>
    </path>
    <path
       style="fill:#cccccc;fill-opacity:1;stroke:#ffffff;stroke-width:0.5;stroke-opacity:1"
       d="M 283.76758 110.87109 L 281.72852 111.43164 L 279.05859 112.68164 L 275.01758 115.15039 L 272.78711 115.98047 L 268.08789 117.16016 L 216.63867 111.95117 L 174.87695 126.88086 L 169.36719 129.62109 L 168.12695 130.65039 L 166.49805 132.29102 L 162.48828 138.70117 L 160.16797 143.57031 L 159.55859 145.95117 L 159.4375 147.10156 L 159.51758 148.16992 L 160.02734 150.19141 L 160.36719 151.10156 L 159.53711 156.79102 L 152.35742 177.55078 L 149.81836 182.51172 L 149.80859 182.51172 L 152.84766 189.57031 L 158.66797 191.74023 L 183.95703 191.96094 L 193.22852 195.37109 L 195.49805 203.5 L 194.84766 213.18164 L 195.37695 221.23047 L 197.42773 222.88086 L 203.95703 225.2207 L 205.33789 227.65039 L 206.09766 230.76172 L 209.87695 240.58008 L 211.4668 243.48047 L 214.6875 246.01172 L 227.52734 252.38086 L 235.11719 257.56055 L 237.61719 258.03125 L 287.02734 255.19141 L 295.7168 256.68164 L 302.66797 257.87109 L 318.59766 262.49023 L 326.32812 261.80078 L 334.03711 256.56055 L 340.76758 253.79102 L 349.26758 254.91016 L 357.32812 257.89062 L 357.69727 258.11133 L 384.58789 273.79102 L 391.14844 282.06055 L 422.80859 310.45117 L 429.54688 313.71094 L 436.34766 315.25 L 443.9375 315.63086 L 452.85742 312.85156 L 453.97852 306.25 L 450.27734 291.85156 L 442.92773 294.08984 L 435.83789 294.69141 L 429.06836 293.19141 L 422.6582 289.23047 L 426.19727 286.27148 L 429.98828 284.91992 L 433.9082 285.10156 L 437.81836 286.88086 L 436.91797 284.45117 L 436.28711 280.57031 L 435.33789 278.56055 L 438.00781 277.44141 L 442.63867 274.61133 L 445.28711 273.55078 L 442.52734 262.94141 L 443.95703 259.45117 L 449.94727 247.4707 L 452.51758 245.95117 L 450.80859 227.62109 L 450.9375 226.37109 L 450.60742 224.76172 L 449.97852 223.05078 L 442.9082 213.64062 L 442.4375 212.75 L 442.00781 211.69141 L 441.57812 209.46094 L 441.28711 206.53125 L 441.1875 193.14062 L 440.70703 191.21094 L 439.82812 188.66992 L 437.79688 184.90039 L 435.73828 181.80078 L 435.14844 181.10156 L 433.67773 178.77148 L 433.36719 177.39062 L 433.24805 175.51172 L 434.09766 169.96094 L 435.14844 166.37109 L 436.49805 163.65039 L 435.05859 156.81055 L 424.70703 130.51172 L 391.69727 130.06055 L 373.79688 126.77148 L 366.77734 123.95117 L 364.9082 123.64062 L 363.39844 123.61133 L 351.03711 126.43164 L 350.14844 126.86133 L 347.60742 128.87109 L 346.23828 129.64062 L 343.63867 130.71094 L 341.9082 131.03125 L 340.32812 131.10156 L 331.05859 129.5 L 322.47852 126.66992 L 306.1875 115.30078 L 300.9668 113 L 299.80859 113.04102 L 285.86719 110.93164 L 283.76758 110.87109 z "
       transform="translate(0.99223912,-0.25078439)"
       id="JM-Southern">
      <desc
         id="desc132">Region Southern</desc>
      <title
         id="title130">Southern</title>
    </path>
  </g>
</svg>
